<?xml version="1.0" encoding="utf-8"?>
<!-- Generator: Adobe Illustrator 26.4.1, SVG Export Plug-In . SVG Version: 6.00 Build 0)  -->
<svg version="1.1" id="Слой_1" xmlns="http://www.w3.org/2000/svg" xmlns:xlink="http://www.w3.org/1999/xlink" x="0px" y="0px"
	 viewBox="0 0 3200 2000" style="enable-background:new 0 0 3200 2000;" xml:space="preserve">
<style type="text/css">
	.st0{fill:#045918;}
	.st1{fill:#004C0B;}
	.st2{fill:#FFB27D;}
	.st3{fill:#F9DDBF;}
	.st4{fill:#EAC3A2;}
	.st5{opacity:0.2;fill:#004C0B;}
	.st6{opacity:0.2;}
	.st7{fill:#F99746;}
	.st8{fill:#ED985F;}
	.st9{fill:#06721D;}
	.st10{fill:#ED7D2B;}
	.st11{fill:#FFFFFF;}
	.st12{fill:#067C1F;}
	.st13{fill:#E8945B;}
	.st14{fill:#EBF3FA;}
	.st15{fill:#B64C41;}
	.st16{fill:#ED975D;}
	.st17{fill:#A9453D;}
	.st18{fill:#06771E;}
	.st19{fill:#EF7E29;}
</style>
<g>
	<path class="st0" d="M2979.8,1693.6H206.6c-1.7,0-3.1-1.4-3.1-3.1v-1c0-1.7,1.4-3.1,3.1-3.1h2773.2c1.7,0,3.1,1.4,3.1,3.1v1
		C2983,1692.2,2981.6,1693.6,2979.8,1693.6z"/>
	<g>
		<g>
			<path class="st1" d="M1656,1124.3c-1.8,0-3.6-1-4.4-2.8l-16.2-34.9h-53.9c-2.7,0-4.8-2.2-4.8-4.8c0-2.7,2.2-4.8,4.8-4.8h57
				c1.9,0,3.6,1.1,4.4,2.8l17.5,37.7c1.1,2.4,0.1,5.3-2.3,6.4C1657.4,1124.2,1656.7,1124.3,1656,1124.3z"/>
		</g>
		<path class="st1" d="M1621.4,1089.1H1580c-4,0-7.3-3.3-7.3-7.3l0,0c0-4,3.3-7.3,7.3-7.3h41.4c4,0,7.3,3.3,7.3,7.3l0,0
			C1628.7,1085.8,1625.5,1089.1,1621.4,1089.1z"/>
		<path class="st2" d="M1579.3,1066.7c1.3,1,25.4-2,33.1,2.9c7.7,4.9,15.2,18.4,11.7,23.2s-19.9-9.7-24.7-9.4s-18.7-4-18.7-4
			L1579.3,1066.7z"/>
		<path class="st3" d="M1586.6,1064.7c0,0,2.5,4.4,2.5,8.2c-0.1,6.4-2.5,9.5-2.5,9.5s-29.1,2.3-60.3-2.2
			c-17.4-2.5-35.5-7.1-49.6-15.5c-19.2-11.3-37.1-51.5-50.4-89.9c-14.1-40.7-23-79.4-23-79.4c6.5-15.8,23.9-25.4,38.4-23
			c8,1.3,26.7,7.4,31,13c6.5,8.5,24.9,86.5,39.3,123.4C1515.1,1016.8,1586.6,1064.7,1586.6,1064.7z"/>
		<path class="st4" d="M1526.3,1080.2c-17.4-2.5-35.5-7.1-49.6-15.5c-19.2-11.3-37.1-51.5-50.4-89.9c-0.2-27.7-0.2-50.6-0.2-50.6
			l31.5,13.1c1,1.9,11.1,97.2,33.8,116.5C1510.7,1070.1,1523,1078.1,1526.3,1080.2z"/>
		
			<rect x="1915.3" y="1319.8" transform="matrix(-1 -1.224647e-16 1.224647e-16 -1 3845.7949 2955.8691)" class="st5" width="15.1" height="316.2"/>
		<g class="st6">
			<path class="st1" d="M1949.7,1659.5c0-14.8-12-26.9-26.9-26.9c-14.8,0-26.9,12-26.9,26.9c0,14.8,12,26.9,26.9,26.9
				C1937.7,1686.4,1949.7,1674.3,1949.7,1659.5z"/>
			<path class="st7" d="M1913.7,1659.5c0-5.1,4.1-9.2,9.2-9.2c5.1,0,9.2,4.1,9.2,9.2s-4.1,9.2-9.2,9.2
				C1917.8,1668.7,1913.7,1664.6,1913.7,1659.5z"/>
		</g>
		<g>
			<path class="st1" d="M1540.8,1124.3c-1.8,0-3.6-1-4.4-2.8l-16.2-34.9h-53.9c-2.7,0-4.8-2.2-4.8-4.8c0-2.7,2.2-4.8,4.8-4.8h57
				c1.9,0,3.6,1.1,4.4,2.8l17.5,37.7c1.1,2.4,0.1,5.3-2.3,6.4C1542.2,1124.2,1541.5,1124.3,1540.8,1124.3z"/>
		</g>
		<g class="st6">
			<g>
				<g>
					<path class="st0" d="M1748.4,1673.5c-1.1-5,55.9-205.4,62.4-228.2l1.9,0.5c-17.5,61.3-62.7,221.6-62.3,227.3L1748.4,1673.5z"/>
				</g>
				<g>
					<path class="st0" d="M1665.9,1528c5-1.1,205.4,55.9,228.2,62.4l-0.5,1.9c-61.3-17.5-221.6-62.7-227.3-62.3L1665.9,1528z"/>
				</g>
				<g>
					<path class="st0" d="M1686.9,1486.5c5.1,0.9,167.9,130.7,186.5,145.5l-1.2,1.5c-49.8-39.7-180.3-143.3-185.7-145.1
						L1686.9,1486.5z"/>
				</g>
				<g>
					<path class="st0" d="M1898.8,1544.5c-4.8-1.8-211.1,26.9-234.6,30.2l0.3,1.9c63.1-8.8,228.2-31.4,233.7-30.3L1898.8,1544.5z"/>
				</g>
				<g>
					<path class="st0" d="M1735.3,1451.2c4,3.3,80.6,197,89.3,219l-1.8,0.7c-23.4-59.3-85-214.1-88.8-218.3L1735.3,1451.2z"/>
				</g>
				<g>
					<path class="st0" d="M1873.3,1489c-5.1,0.8-169.7,128.5-188.4,143l1.2,1.5c50.4-39.1,182.2-140.9,187.6-142.6L1873.3,1489z"/>
				</g>
			</g>
			
				<ellipse transform="matrix(0.9239 -0.3827 0.3827 0.9239 -462.5666 799.3717)" class="st7" cx="1778.1" cy="1562.4" rx="16.1" ry="16.1"/>
			<g>
				<path class="st1" d="M1651.6,1559.9c0-69.7,56.7-126.5,126.5-126.5c69.7,0,126.5,56.7,126.5,126.5s-56.7,126.5-126.5,126.5
					C1708.3,1686.4,1651.6,1629.6,1651.6,1559.9z M1665.1,1559.9c0,62.3,50.7,113,113,113s113-50.7,113-113s-50.7-113-113-113
					S1665.1,1497.6,1665.1,1559.9z"/>
			</g>
		</g>
		<path class="st1" d="M1506.2,1089.1h-41.4c-4,0-7.3-3.3-7.3-7.3l0,0c0-4,3.3-7.3,7.3-7.3h41.4c4,0,7.3,3.3,7.3,7.3l0,0
			C1513.5,1085.8,1510.2,1089.1,1506.2,1089.1z"/>
		<path class="st8" d="M1871.8,1290.6c0,0,23.4,2.4,26.3,5.6c2.9,3.2,13.5,20.8,13.8,24.1c0.3,3.3,0.1,9.3-2.3,8.3
			c-2.4-1-12.5-17.1-17.7-17.3s-21.5-7.1-21.5-7.1L1871.8,1290.6z"/>
		<polygon class="st0" points="1847.3,1415.7 1629.4,1418 1531.4,1111.6 1732.9,1109.3 		"/>
		<path class="st8" d="M1777,1124.9c0,0,4.3,112.7,14.8,123.9c6.8,7.2,80.1,41.8,80.1,41.8l-0.7,13.8c0,0-95.3-13.5-109.3-30.5
			c-27.7-33.6-29.6-125-30.9-134.7S1757.3,1110,1777,1124.9z"/>
		<path class="st9" d="M1991.5,1601.6h-72.9c0,0-2.7-11.6,2.1-19.5c4.2-7,2.6-11-0.5-16.8c3.3,1.4,7.6,2.6,12.3,2.3
			c3.6-0.2,7.5-1.9,10.8-3.8c3.1,3.6,16.6,18.8,20.8,21.8C1968.7,1589,1990,1587.8,1991.5,1601.6z"/>
		<path class="st10" d="M1655.2,1334.9c4.9,29.2,30.7,50.2,60.4,49.9c36.7-0.4,90.3-1.2,110-1.9c41.7-1.6,57.3,0.1,57.2,1.3
			c-1.9,17.5-3.4,10,16,8.7c0,0,68.7-1.9,48.1-48.9c-20.5-47-215.6-61.6-232.8-59.6C1699.4,1286,1647.7,1289.6,1655.2,1334.9z"/>
		<path class="st10" d="M1950.6,1362.3c-0.9,33.2-6,125.2,6.9,199.1c3.3,18.7-23.6,19.3-23.8,19.3c-5.1,0.6-14.1,1-17.1-2.7
			c-20.7-25.7-50-145.2-42.1-194.8c3.9-24.2,28-23.8,47.5-32.7C1934.1,1345.1,1951,1349.1,1950.6,1362.3z"/>
		
			<rect x="1591.3" y="1312.8" transform="matrix(-1 -1.224647e-16 1.224647e-16 -1 3197.7163 2877.9092)" class="st1" width="15.1" height="252.4"/>
		<path class="st1" d="M1707.1,923.5c21.3-5.9,44.3-0.6,61.1,13.7c7.4,6.3,15.7,14.3,23.3,23.8c19,23.6-13.3,49.9-8.3,58
			c5,8.1,15.7,14.1,12.2,31.7c-3.5,17.7-32.3,42-42,43.6c-98.6,15.9-144.8-36.3-113.3-67.7c31.5-31.4,15.5-73.4,41.4-91.5
			C1689.6,929.5,1698.6,925.8,1707.1,923.5z"/>
		<path class="st2" d="M1780.2,1116.8c-7.9,6.2-17.9,11.4-30.6,15.2c-47.8,14-68.7-25.9-77.2-53.5c6.4-4.2,12.5-5.3,16.1-6
			c3.5-0.6,7.1-1.1,10.2-1.4c5.2-4.5,12.3-22,12.6-48.5l2.3,0.5l38.7,8.2c0,0-1,12.2-1.2,23.7c-0.1,9,0.2,17.6,2.1,19.6
			c2.7,0.8,5.1,1.6,5.1,1.6c0.6,0.9,0.6,0.5,0.4,0.2C1759.2,1077.1,1770.6,1093.7,1780.2,1116.8z"/>
		<path class="st8" d="M1752.3,1031.2c0,0-1.1,12.2-1.2,23.7c-21.7-0.9-32.9-20.9-37.5-32L1752.3,1031.2z"/>
		<path class="st2" d="M1759.4,1042.2c0,0-51.5,0.1-51-31.9c0.4-32-5.9-53.6,26.9-55c32.9-1.4,39.1,10.9,41.6,21.6
			C1779.3,987.6,1772.8,1041.4,1759.4,1042.2z"/>
		<path class="st1" d="M1775.6,959c-7.8-9.8-13.9-7.7-17.3-4.9c-27.9-15.9-46.3,6.7-46.3,6.7c-3.8,22.9-20.5,35.9-20.5,35.9
			s9.5,6.7,31,0.7c27.5-7.8,35.7-32.5,36.7-36.2c3.1,2.9,7,4.6,10.3,11c3.9,7.6,6.3,12,7.1,24.9
			C1776.6,997.1,1787.3,973.7,1775.6,959z"/>
		
			<rect x="1832.1" y="1600.4" transform="matrix(-1 -1.224647e-16 1.224647e-16 -1 3847.0791 3215.6836)" class="st1" width="182.9" height="14.8"/>
		<path class="st7" d="M1632.8,1334.9c4.9,29.2,30.7,50.2,60.4,49.9c36.7-0.4,90.3-1.2,110-1.9c41.7-1.6,57.3,0.1,57.2,1.3
			c-1.9,17.5-3.4,10,16,8.7c0,0,68.7-1.9,48.1-48.9c-20.5-47-215.6-61.6-232.8-59.6C1677,1286,1625.3,1289.6,1632.8,1334.9z"/>
		<path class="st3" d="M1632.6,1237.3c3.5-23.9-5-114.4,13.9-142.7c13.7-20.5,32.6-28.5,56.1-28.9c7.5,4.3,36.2,20.4,47.5,17.5
			c0.1,0,0.3-0.1,0.6-0.2c5.3-1.6,7.1-5.5,2.4-8.5c0,0,19.2,4.1,25.1,10.9c5.7,6.5,5.5,20.4,7.3,36.9c0.5,4.1,0.5,8.2,1,12.2
			c2.3,18.5-3.7,20.5-24.1,73.8c-10,26.1-5.3,46.9,1.4,60.8c6,12.4,1.8,27.4-9.9,34.7c-40.2,25.5-118.4,69.7-121.1,31
			C1630,1295.6,1627.8,1270.4,1632.6,1237.3z"/>
		<path class="st2" d="M1700.8,1121.4c0,0,19.3,131.1,32.2,142.2c8.3,7.2,91,20.5,91,20.5l1.4,12.7c0,0-118,8.7-124.7-1.2
			c-27.2-39.7-46.3-142.6-48.9-153.1C1649.1,1132,1677.5,1107.3,1700.8,1121.4z"/>
		<path class="st0" d="M1969.1,1600.6h-72.9c0,0-2.7-11.6,2.1-19.5c4.2-7,2.6-11-0.5-16.8c3.3,1.4,7.6,2.6,12.3,2.3
			c3.6-0.2,7.5-1.9,10.8-3.8c3.1,3.6,16.6,18.8,20.8,21.8C1946.3,1588,1967.6,1586.8,1969.1,1600.6z"/>
		<path class="st7" d="M1928.2,1362.3c-0.9,33.2-6,125.2,6.9,199.1c3.3,18.7-23.6,19.3-23.8,19.3c-5.1,0.6-14.1,1-17.1-2.7
			c-20.7-25.7-50-145.2-42.1-194.8c3.9-24.2,28-23.8,47.5-32.7C1911.7,1345.1,1928.6,1349.1,1928.2,1362.3z"/>
		<path class="st11" d="M1768,1023.3c0,0-5-1.6-18.5,0.3c0,0,1,5.3,11.1,5.2C1766.3,1028.8,1768,1023.3,1768,1023.3z"/>
		<path class="st3" d="M1719.2,1160.7c0,0-35,30.3-75.6,20c0,0-14.6-97.8,36.2-99.2C1679.8,1081.5,1722,1098.2,1719.2,1160.7z"/>
		
			<rect x="1606.4" y="1398" transform="matrix(-1 -1.224647e-16 1.224647e-16 -1 3457.2979 2815.1807)" class="st1" width="244.5" height="19.2"/>
		
			<rect x="1770.9" y="1387" transform="matrix(-0.866 0.5 -0.5 -0.866 4076.7522 1920.8477)" class="st1" width="20.2" height="239.2"/>
		<path class="st0" d="M1606.4,1398c4.5,0,21.4-16,48.1-15.1c26.6,0.9,175.2,0,175.2,0s19.4-2,21.2,15.2H1606.4z"/>
		
			<rect x="1829.7" y="1319.8" transform="matrix(-1 -1.224647e-16 1.224647e-16 -1 3674.5967 2955.8691)" class="st1" width="15.1" height="316.2"/>
		<path class="st2" d="M1824,1284.1c0,0,26.2,1.5,29,4.7c2.9,3.2,13.5,20.8,13.8,24.1c0.3,3.3,0.1,9.3-2.3,8.3
			c-2.4-1-12.4-18.3-17.6-18.6s-21.6-5.8-21.6-5.8L1824,1284.1z"/>
		<path class="st1" d="M1581.8,1328.8H1867l0,0c0-17.5-14.2-31.7-31.7-31.7h-234.6c-10.4,0-18.9,8.5-18.9,18.9V1328.8z"/>
		<g>
			<g>
				<g>
					<path class="st0" d="M1569.2,1673.5c-1.1-5,55.9-205.4,62.4-228.2l1.9,0.5c-17.5,61.3-62.7,221.6-62.3,227.3L1569.2,1673.5z"/>
				</g>
				<g>
					<path class="st0" d="M1486.7,1528c5-1.1,205.4,55.9,228.2,62.4l-0.5,1.9c-61.3-17.5-221.6-62.7-227.3-62.3L1486.7,1528z"/>
				</g>
				<g>
					<path class="st0" d="M1507.7,1486.5c5.1,0.9,167.9,130.7,186.5,145.5l-1.2,1.5c-49.8-39.7-180.3-143.3-185.7-145.1
						L1507.7,1486.5z"/>
				</g>
				<g>
					<path class="st0" d="M1719.5,1544.5c-4.8-1.8-211.1,26.9-234.6,30.2l0.3,1.9c63.1-8.8,228.2-31.4,233.7-30.3L1719.5,1544.5z"/>
				</g>
				<g>
					<path class="st0" d="M1556.1,1451.2c4,3.3,80.6,197,89.3,219l-1.8,0.7c-23.4-59.3-85-214.1-88.8-218.3L1556.1,1451.2z"/>
				</g>
				<g>
					<path class="st0" d="M1694.1,1489c-5.1,0.8-169.7,128.5-188.4,143l1.2,1.5c50.4-39.1,182.2-140.9,187.6-142.6L1694.1,1489z"/>
				</g>
			</g>
			<path class="st7" d="M1582.8,1562.4c0-8.9,7.2-16.1,16.1-16.1c8.9,0,16.1,7.2,16.1,16.1s-7.2,16.1-16.1,16.1
				C1590,1578.5,1582.8,1571.3,1582.8,1562.4z"/>
			<g>
				<path class="st1" d="M1472.4,1559.9c0-69.7,56.7-126.5,126.5-126.5s126.5,56.7,126.5,126.5s-56.7,126.5-126.5,126.5
					S1472.4,1629.6,1472.4,1559.9z M1485.9,1559.9c0,62.3,50.7,113,113,113s113-50.7,113-113s-50.7-113-113-113
					S1485.9,1497.6,1485.9,1559.9z"/>
			</g>
		</g>
		<g>
			<path class="st1" d="M1864.1,1659.5c0-14.8-12-26.9-26.9-26.9c-14.8,0-26.9,12-26.9,26.9c0,14.8,12,26.9,26.9,26.9
				C1852.1,1686.4,1864.1,1674.3,1864.1,1659.5z"/>
			<path class="st7" d="M1828.1,1659.5c0-5.1,4.1-9.2,9.2-9.2c5.1,0,9.2,4.1,9.2,9.2s-4.1,9.2-9.2,9.2
				C1832.2,1668.7,1828.1,1664.6,1828.1,1659.5z"/>
		</g>
		<path class="st12" d="M1327.3,912.8c-3.6-7,79-32.1,80.3,36.8c0,0,154.7-3.8,80.8-90c-25.6-29.9-22.9-54.5-22.2-77.5
			c0.8-23-15.9-89.8-73.2-83c0,0-15-6.1-33.7,3.6C1316.8,724.7,1221.4,938.2,1327.3,912.8z"/>
		<path class="st1" d="M1222.6,1608.1c0,0-17.3,15.8-14,27.1c3.4,11.2,19,18.7,21.1,32.5c2.1,13.7,10.6,21.2,18.2,21.2
			c7.6,0,36.3,0,36.3,0s5.6-9.7-7.9-12.6c-13.5-2.9-18.6-19.1-17.8-34c0.8-15-1.3-35-1.3-35l-28.8-6.7L1222.6,1608.1z"/>
		<path class="st1" d="M1369.3,1614.8c0,0-6.2,67.8,1.4,71.6h98.2c0,0-0.9-12.3-16.5-14.8c-15.6-2.5-43.1-11.7-47.8-32.1
			S1369.3,1614.8,1369.3,1614.8z"/>
		<path class="st2" d="M1299.9,1133.9c20-45,32.3-57.9,30-71.8c-1.7-10.4,5.3-193.6,5.3-193.6c2.4-0.7,7.1-1.4,9.8-2
			c8.2-1.8,15-7.6,17.9-15.5c3.4-9.6,6.1-23.7,6.1-41.3l2.6,0.5l43.2,8.5c0,0-1,13.6-1,26.4c0,0.1,0,0.2,0,0.3
			c-0.1,11.1,7.2,20.9,17.9,24c5.5,1.6,10.2,2.9,10.2,2.9s15.9,45.3,18.9,91.8c3,46.5-28.8,66.7,0.2,159.6
			C1490.5,1218.6,1288.9,1158.8,1299.9,1133.9z"/>
		<path class="st13" d="M1414.6,818.7c0,0-1,13.6-1,26.4c-24.2-0.7-36.9-22.7-42.2-34.9L1414.6,818.7z"/>
		<path class="st2" d="M1422.7,830.8c0,0-57.2,0.9-57.2-34.7c0-35.6-7.4-59.5,29-61.6c36.5-2.1,43.6,11.5,46.5,23.4
			C1443.9,769.8,1437.5,829.7,1422.7,830.8z"/>
		<path class="st12" d="M1420.6,733.7c0,0-15.6,41.8-39.7,47.9c-24,6.2-34.4-0.3-34.4-0.3s18.4-14.6,22.2-40.2
			C1368.7,741.2,1408.8,713.8,1420.6,733.7z"/>
		<path class="st12" d="M1416.7,737.1c0,0,11.6,4.3,16.4,12.8c4.7,8.3,8.7,19.2,7.7,32.7c0,0,11.8-28.4-1.5-44.5
			C1425.3,721.1,1416.7,737.1,1416.7,737.1z"/>
		<path class="st14" d="M1410.2,808.7c0,0,3.9,5.2,11.8,4.8c6.4-0.3,8.8-5.8,8.8-5.8S1419.2,804.9,1410.2,808.7z"/>
		<path class="st3" d="M1452.5,1053.8l-56.7,16.9l-18-4.4l-51.1-12.5c0,0-6.6-2.2-12.5-15.7c-1.1-2.6-3.1-10.4-5.2-19.6
			c-2.3-10.2-4.7-22.2-6.1-30.7c-2-12.5-6-28-9.4-44.7v0c-2.5-12.2-4.8-25.1-5.8-37.9c-1.4-17.3,11.3-32.6,28.5-34.5l19-2.1
			c60.2,49.1,106.5,3.8,106.5,3.8s15.8,28.2,26.2,68.8C1478.3,981.7,1452.5,1053.8,1452.5,1053.8z"/>
		<path class="st10" d="M1448.9,1064.7c0,0,28.1,87.4,29.9,117.2c1.8,29.8-53.7,422.8-55.9,436.5c-2.1,12.9-18.2,21.2-18.2,21.2
			s-7.4,4.4-17.9,1.4c-14.6-4.1-19.2-9.1-19.2-9.1s-21.9-280.3-8.3-380.4s13.7-186.7,13.7-186.7H1448.9z"/>
		<path class="st7" d="M1329.9,1062.1c0,0-42.8,57.5-46.8,96.3c-4,38.9-6.3,175.3-14.8,213.2s-39.8,110.8-39.8,228.9
			c0,0,3.2,6.8,13.3,10.4c3.2,1.2,7.5,2.3,11.7,3.2c8.3,1.9,16.8-2.1,20.5-9.7c21.1-42.6,88.5-179.8,91.9-208.3
			c2.4-20.2,23.7-153.6,70.1-231.9c11.1-18.8-6.8-93.5-6.8-93.5L1329.9,1062.1z"/>
		<path class="st11" d="M1411.5,809.7c0,0,1,4.2,11.4,3.5c0,0,8.8-0.5,8.5-5.2C1431.4,808.1,1422.9,804.8,1411.5,809.7z"/>
		<path class="st1" d="M1453.4,1051.2c0,0-11.3,8.9-33.7,9.4c-26.8,0.5-93-6.8-93-6.8s-2.9,8.2-2.8,16.9c0,0,81,20.4,127.9,3
			C1451.7,1073.7,1457.7,1062.3,1453.4,1051.2z"/>
		<g>
			<path class="st11" d="M1413.9,1069.8c0-7.6,5.5-13.8,12.2-13.8s12.2,6.2,12.2,13.8c0,7.6-5.5,13.8-12.2,13.8
				S1413.9,1077.5,1413.9,1069.8z M1417.9,1069.8c0,5.4,3.7,9.8,8.2,9.8c4.5,0,8.2-4.4,8.2-9.8c0-5.4-3.7-9.8-8.2-9.8
				C1421.6,1060.1,1417.9,1064.5,1417.9,1069.8z"/>
		</g>
		<path class="st4" d="M1357.1,1051.2c-21.9-11.2-37.4-22.2-48.2-32.7c-2.3-10.2-4.7-22.2-6.1-30.7c-2-12.5-8.9-43.3-12.3-60.1
			l91.1,131.2C1381.7,1058.9,1385.8,1065.9,1357.1,1051.2z"/>
		<path class="st4" d="M1389.4,963.8c0,0,40.5,64.3,52.2,75.9s-47.9-9.2-47.9-9.2L1389.4,963.8z"/>
		<path class="st2" d="M1481.5,1067c1.3,1,25.4-2,33.1,2.9c7.7,4.9,15.2,18.4,11.7,23.2c-3.5,4.8-19.9-9.7-24.7-9.4
			c-4.8,0.2-18.7-4-18.7-4L1481.5,1067z"/>
		<path class="st3" d="M1290.6,927.7c0,0,42.7,113.7,82.3,137s110,17.7,110,17.7s2-3.1,2.6-9.8c0.3-3.3-2.6-7.9-2.6-7.9
			s-71.6-47.9-74.7-56c-14.4-36.9-35.3-84.1-44-90.4C1355.4,912.1,1300.4,904,1290.6,927.7z"/>
	</g>
	<g>
		<g>
			<g>
				
					<rect x="1863.8" y="1422.5" transform="matrix(0.1992 -0.98 0.98 0.1992 307.5567 3227.7214)" class="st12" width="529.8" height="6.3"/>
			</g>
			
				<rect x="2170.1" y="1160.6" transform="matrix(0.9795 0.2014 -0.2014 0.9795 284.2725 -414.0322)" class="st12" width="13.4" height="58.8"/>
		</g>
		<g>
			<path class="st2" d="M2422,1624l17.7-5.7c0,0,3.7-48-4.2-105.6c-5-36.5-14.1-76-30.7-107.7c-7.5-14.4-16.5-27.1-27.3-37.3
				c0,0-13.6-31.5-31.6-73.7c-20-46.9-145.2-60.6-73.7,37.6c14.7,20.1,30.4,55.6,49.2,77.2c32.2,36.8,55,79.8,70.6,117.6
				C2414.3,1580.4,2422,1624,2422,1624z"/>
			<path class="st2" d="M2462.3,1626.7c5.4,8.7-6.2,17.2-20.6,25.2c-14.3,8-8.4,8.8-26.7,22.5c-18.3,13.6-29.1,12.1-31.9,10.1
				c-2.5-1.8,5-10.2,12.9-19.4c1-1.2,2-2.3,3-3.5c8.8-10.5,10.1-23.7,14.2-37.4c3.9-13-2.3-45.2-2.3-45.2l24.5-19.4
				c0,0,5,29.3,7.7,41.5c1.6,7.2,7.5,13.2,12.2,17.6C2457.8,1621.1,2460.4,1623.6,2462.3,1626.7z"/>
			<path class="st0" d="M2441.7,1651.9c-14.3,8-8.4,8.8-26.7,22.5c-18.3,13.6-29.1,12.1-31.9,10.1c-2.5-1.8,5-10.2,12.9-19.4
				l0.2,0.1c0,0,16.5-2.2,30.7-14.8c11.5-10.2,20.5-24.6,28.4-31.7c2.6,2.4,5.2,4.9,7.1,8
				C2467.7,1635.3,2456.1,1643.9,2441.7,1651.9z"/>
		</g>
		<path class="st15" d="M2299.4,702.6c0,0,43.2-5.3,64.9,34.9c21.7,40.2,20,98.4,41,125.8c21,27.5-3.5,53.5-3.5,53.5l-164,5.5
			c0,0-11.4-30.7,0-67.5C2249.2,818,2193.6,708.1,2299.4,702.6z"/>
		<path class="st2" d="M2153.3,1190.2c1.7,6.4,7.2,20.9,11.4,20.9c3.5,0,4.7-17.7,9.2-21.5c6.5-5.5,11.8-16.9,12.6-19.7
			c1.7-5.7,3.4-6.9,3.4-6.9l0,0h0c0,0,51.8-94.8,55.9-119c1.3-7.9,4.7-23.7,8.7-41.5c4.3-19.3,9.4-40.9,13.1-57
			c-16.5-3.2-34.9-4.4-49.8-4.7c-3,19.6-5.8,39.7-8.1,57.1c-3.5,25.9-6.1,46.1-7.8,50.4c-4.5,11.8-16.9,75.6-28.6,108.8
			c-1.3,3.3-5.1,11.7-9.3,14.6C2158.9,1175.3,2151.7,1183.8,2153.3,1190.2z"/>
		<path class="st2" d="M2228.6,960.5c3-45.8,38.4-95.1,38.4-95.1s1.3-0.1,3.5-0.3c1.2-0.1,2.3-0.9,2.7-2c1.3-3.6,1.7-11.5,1.7-19.8
			c0-12.6-1-26-1-26l42.5-8.4l2.5-0.5c-0.1,21.4,4,37.5,8.4,46.5c2.1,4.3,6.2,7.2,10.9,7.9c9.1,1.3,25.2,4,36.1,8.5
			c5.3,2.2,9.3,4.8,10.7,7.9C2396.6,904.7,2225.6,1006.3,2228.6,960.5z"/>
		<path class="st13" d="M2273.9,817.2c0,0,1,13.4,1,26c23.8-0.7,36.4-22.4,41.5-34.4L2273.9,817.2z"/>
		<path class="st2" d="M2265.9,829.2c0,0,56.3,0.9,56.4-34.1c0-35.1,7.3-58.6-28.6-60.7c-36-2.1-43,11.3-45.8,23
			C2245,769.1,2251.3,828,2265.9,829.2z"/>
		<path class="st2" d="M2187.3,1646.7l18.1,4.4c0,0,28.4-38.9,52-92c15-33.6,28-72,30.6-107.7c1.2-16.2,0.2-31.8-3.6-46.1
			c0,0,5.1-34,12-79.3c7.7-50.4,17.6-114.8,25.4-162.1l-4.7-1.4l-76.9-45c0,0-35.3,80.5-26.3,201.6c1.8,24.8-3.4,63.3,1.2,91.5
			c8,48.3,4.7,96.8-1.9,137.2C2203.7,1605.6,2187.3,1646.7,2187.3,1646.7z"/>
		<path class="st15" d="M2249.5,737.9c8.7-10.5,15.3-8.2,19-5.1c30.2-16.7,50.6,8.1,50.6,8.1c3.8,25.2,21.9,39.6,21.9,39.6
			s-10,5.3-33.9,0.3c-28.4-6-36.2-38-37.3-42.1c-3.4,3.1-10.2,9.8-12.3,16.4c-2.8,8.9-4.1,27.3-9.4,26.7
			C2248.1,781.6,2236.5,753.7,2249.5,737.9z"/>
		<path class="st3" d="M2193.6,1438.2c68,38.9,247-23,246.8-26.6c-0.9-19-18.2-133.5-38.4-242.7c-12.4-67.2-45.5-92.3-40.2-96.5
			c0.1-0.1,0.1-0.1,0.1-0.1c20.4-14.5,36.7-167.3,23.1-193.2c-0.7-1.3-1.8-2.4-3.3-3.5c0.1-0.1,0.1-0.2,0.1-0.2
			c-12.7-9.3-38.7-12.1-38.7-12.1s-14,34.3-18.3,39.7c-27.8,34.7-77.6,19-70.8-2.6c2.4-7.9,15-32.6,16.6-35.4
			c0.1-0.1-3.5,0.3-3.5,0.3c-8.4,1.1-14.3,1.9-18.5,2.7c-8.4,1.4-10.4,2.4-12.5,4c-7.3,7.3-16.9,25.6-17.7,58.1
			c-0.3,12.1-12.9,145.7,27.9,143.4c0.9-0.1,0.1,2.1-1.6,6.3c-5.8,13.2-22.1,46.4-26.8,89
			C2202.3,1307.4,2193.6,1438.2,2193.6,1438.2z"/>
		<path class="st11" d="M2280.1,807.8c0,0-0.8,4.4-11.6,4.3c0,0-9.1-0.1-9-4.8C2259.5,807.2,2268,803.4,2280.1,807.8z"/>
		<path class="st2" d="M2220.2,1670.2c0,10.2-14.4,11.4-30.8,10.6c-16.4-0.7-11.8,3.1-34.6,5c-22.8,2-31.2-5-32.5-8.2
			c-1.2-2.8,9.6-6,21.1-9.7c1.5-0.5,2.9-0.9,4.4-1.4c13-4.3,21.1-14.9,31.8-24.3c10.1-9,21.9-39.6,21.9-39.6l31-3.6
			c0,0-11.2,27.5-15.3,39.3c-2.4,7-0.6,15.1,1.1,21.4C2219.3,1663.1,2220.2,1666.6,2220.2,1670.2z"/>
		<path class="st0" d="M2189.4,1680.8c-16.4-0.7-11.8,3.1-34.6,5c-22.8,2-31.2-5-32.5-8.2c-1.2-2.8,9.6-6,21.1-9.7l0.2,0.2
			c0,0,15.2,6.8,33.9,3.6c15.2-2.6,30.3-10.1,40.8-12c0.9,3.4,1.8,6.9,1.8,10.5C2220.2,1680.4,2205.8,1681.5,2189.4,1680.8z"/>
		<path class="st0" d="M2193.6,1438.2c68,38.9,247-23,246.8-26.6c-0.9-19-18.2-133.5-38.4-242.7c-12.4-67.2-45.5-92.3-40.2-96.5
			c-1.3,1-20.4,16.5-55.6,14.4c-31.5-1.9-55.7-5.8-61.7-6.9c-5.8,13.2-22.1,46.4-26.8,89C2202.3,1307.4,2193.6,1438.2,2193.6,1438.2
			z"/>
		<path class="st12" d="M2361.9,1072.3c0,0-55.7,23.2-115.7,1.3l-3,9.4c0,0,61.8,21.5,121.2-3L2361.9,1072.3z"/>
		<path class="st12" d="M2258.1,785.4h-9.2c-4.2,0-7.6-3.4-7.6-7.6v-2.8c0-2.1,1.7-3.8,3.8-3.8h18.1c1.4,0,2.5,1.1,2.5,2.5v4.3
			C2265.6,782,2262.2,785.4,2258.1,785.4z"/>
		<path class="st12" d="M2285.6,785.4h9.2c4.2,0,7.6-3.4,7.6-7.6v-2.8c0-2.1-1.7-3.8-3.8-3.8h-18.1c-1.4,0-2.5,1.1-2.5,2.5v4.3
			C2278.1,782,2281.4,785.4,2285.6,785.4z"/>
		<g>
			<path class="st12" d="M2280.6,777.3c-0.1,0-7.9-3.4-15.5,0l-0.6-1.2c8.1-3.7,16.2-0.2,16.6,0L2280.6,777.3z"/>
		</g>
		<g>
			<path class="st2" d="M2423.3,1035.8c0.7-0.8-29.3-10.5-46.9-6.3c-10.5,2.5-6.2,15.1,2.4,16
				C2387.4,1046.3,2417.6,1042.8,2423.3,1035.8z"/>
			<path class="st2" d="M2371.6,1032.4c0,0-9.7,13-9.7,19.1c0,6.1,5.3,20.3,10.4,18.8c5.2-1.6,7.3-15.2,8.1-18.4s6.7-5.3,8.1-9.7
				c1.4-4.3,1.6-6.1,1.6-6.1L2371.6,1032.4z"/>
		</g>
		<path class="st2" d="M2398,909.1c-0.1-0.1,77.1,129,67.2,152.9c-9.9,23.9-17.2,3.5-25.9-6c-1.5-1.6-70.8-91.1-68.6-105.6
			C2372.8,936.1,2398,909.1,2398,909.1z"/>
		<g>
			<g id="man_2_">
				<path class="st2" d="M2361,1052.2c0,0-33.5,4.2-36.7,6.6c-3.2,2.4-10.8,18.3-10,23.2s11.6,12.6,15.3,12.6s5-8.2,8.5-10
					c3.4-1.8,6.7-2.3,9.3-3c5-1.4,14.6-5.7,14.6-5.7L2361,1052.2z"/>
				<path class="st1" d="M2513.2,891.9c0,0-44.1,119.4-63.1,128.6c-19,9.2-89,31.7-89,31.7v27.4c0,0,71.3,1.1,106.6-9.2
					s81.4-48.9,81.4-48.9L2513.2,891.9z"/>
				<path class="st1" d="M2605.3,778.9l-43.2,81.9l-10.3,0.7l-4.7,13.1l-43.3,130.4C2503.9,1004.9,2480,839.3,2605.3,778.9z"/>
				<path class="st1" d="M2533.3,851.3c0,0-47.7,176-52.3,343.9c0,0,39.6,13.8,101.8,2.9C2645.2,1187,2533.3,851.3,2533.3,851.3z"/>
				<g>
					<path class="st1" d="M2750.9,1687.5h42.9c5.4-2.9,10.2-9.6,11.7-19.7c2.1-13.8,17.6-21.4,20.9-32.7
						c3.3-11.3-13.8-27.2-13.8-27.2l-2.9-3.7l-3-3.8l-28.5,6.7c0,0-0.7,6.8-1.1,15.4c-0.3,6.2-0.5,13.4-0.1,19.8
						c0.8,15.1-4.2,31.3-17.6,34.2C2749.5,1678.7,2750,1684.6,2750.9,1687.5z"/>
					<path class="st1" d="M2501.9,1687.5h98.1c4.7-5.8,3-27,2.3-34c-0.1-1.4-0.2-2.2-0.2-2.2s-33.5-26.8-38.1-6.3
						c-0.1,0.6-0.3,1.3-0.5,1.9c-5.8,19.2-31.8,27.9-46.8,30.4C2506.8,1678.9,2503.2,1683.9,2501.9,1687.5z"/>
					<path class="st7" d="M2520.5,1139.7c0,0,5.1,63.5,11.1,139.8c8.1,103.7,17.9,231,18.9,255.1c1.7,41.9,8.4,108.9,8.4,108.9
						s15.9,15.9,47.7,9.2c0,0,28.4-95.6,36.5-196.8c0.1-1.7,0.3-3.3,0.4-5c7.5-103,19.3-320,19.3-320L2520.5,1139.7z"/>
					<path class="st10" d="M2520.5,1139.7c0,0,5.1,63.5,11.1,139.8l111.5,176.4c0.1-1.7,0.3-3.3,0.4-5c7.5-103,19.3-320,19.3-320
						L2520.5,1139.7z"/>
					<path class="st7" d="M2543.8,1147.3c0,0,91.7,229.9,152,338c60.3,108,79.2,138.2,79.2,138.2s34.6-13.8,37.7-23.2
						c0,0-23.1-208.6-63.4-259.4c-22.8-28.7-49.6-115-50.9-145.1c-1.3-30.2-8.2-89.8-8.2-89.8L2543.8,1147.3z"/>
				</g>
				<path class="st2" d="M2566.6,812.1c35.8,11.3,97.9-19.2,97.9-19.2s-33-24.8-31.3-76.4l-27.7,22.3l-18.8,15.2
					c0,0,0.1,8.9,2.1,24.6c0.4,2.9,0.8,5.9,1.3,9.2c0.4,2.6-0.7,5.3-3,6.7C2574,802.6,2566.6,812.1,2566.6,812.1z"/>
				<path class="st11" d="M2516.6,1145c1.1,0.9,2.3,1.4,3.8,1.4c13.5-0.2,52.7,7.3,85.9,3.9c28-2.7,52.8-11,79.4-22.9
					c3.5-1.6,11.7-5.9,11.5-9.9c-0.1-4.3-0.5-10.6-1.1-18.5c-1.9-27.5-5.2-74.7-2-129.2c0.6-10.1,0.9-20.2,0.9-30.1
					c0.3-73.9-14.4-138.8-43.8-160.8c0,0-20.5,11.5-34.7,16.1c-13.9,4.4-21.1,3.6-28.3-1.2c0,0-14.1,7-20.1,13.5
					c-13.9,15.2-24.8,35.3-31.9,64.2c-6.1,24.6-11.8,60.4-13.8,106.4C2521.5,998.6,2515.7,1144.3,2516.6,1145z"/>
				<path class="st0" d="M2720.5,1179.2c-90.5,56.7-164.3,28-164.3,28c-13.2-103.5-5.9-228.4-4.2-258.9
					c4.4-133.7,99.1-169.5,99.1-169.5l39.5,122.1l5.8,54.3l10.5,98.1L2720.5,1179.2z"/>
				<path class="st16" d="M2586.6,754c0,0,0.1,8.9,2.1,24.6c20.9-3.6,44.5-37.3,44.5-37.3c-10.6-3.1-19.9-3.6-27.8-2.5L2586.6,754z"
					/>
				<path class="st2" d="M2571.1,753c0,0,64.6,10.7,70.6-29.6c6.1-40.3,18.5-66.1-22.5-74.6c-41-8.6-51.3,5.6-56.6,18.6
					C2557.3,680.4,2554.5,749.2,2571.1,753z"/>
				<path class="st2" d="M2754.1,1104.4c0,0,6.9,9.2,7.2,12.9c1.9,25-9.5,28.4,20,42.3c0,0,12.6,4.8,12.8-5c0.2-9.8-8.8-10-7.1-23.7
					c1.9-15.8,1.7-16-8.7-24.2l-6.9-11.4L2754.1,1104.4z"/>
				<path class="st0" d="M2641.8,719.6c0,0-6.6-1.1-5.6-10.2c1.1-9.1,1.1-21.1-6.4-18.8c-7.4,2.2-7.8,8.2-10.8,4.7
					c-3-3.5-3.1-18.1-25.2-19.1c-22.1-1-31,6.7-41.3,2.2s-10.8-20-10.8-20s2.9,5.5,7.3,7.3c0,0-17.1-23.4,2.7-39.5
					c19.8-16.1,40-5.5,51.5-4.9c25.3,1.5,41.6,3,49.9,19.7C2661.4,657.5,2658,703.6,2641.8,719.6z"/>
				<path class="st2" d="M2765,1115.3c0,0-6.7,6.9-7.1,9.8c-1.4,9.3-4.4,13.3-2.9,14.3c3.2,2.1,7.5-4.8,9.5-10.9
					C2766.6,1122.4,2765,1115.3,2765,1115.3z"/>
				<path class="st1" d="M2707,1053.3c-19.8-50.7-75.2-136.3-75.2-136.3l64.7,38.2L2707,1053.3z"/>
				<path class="st0" d="M2771.7,1111.4c-11.1,2.2-23.2,1.3-23.2,1.3s-33-102.1-37.3-111.4c-2.7-6-44.9-48.9-74.4-78.5
					c-17.3-17.4-23-43.3-14.4-66.4l28.7-77.6c0,0,22.3,13.1,45.9,53.8c29.2,50.3,61.2,131.4,66.9,144.5c17,39.4,23,127.7,23,127.7
					S2780.5,1109.7,2771.7,1111.4z"/>
				<path class="st1" d="M2651.2,778.9l-43.2,81.9l-22.1-8l7.2,21.9l-43.3,130.4C2549.8,1004.9,2525.9,839.3,2651.2,778.9z"/>
			</g>
			<path class="st11" d="M2566.6,730.2c0,0,2.5,6.6,8.8,6.8c6.3,0.2,11.1-5.9,11.1-5.9S2572.9,727.9,2566.6,730.2z"/>
		</g>
		<path class="st3" d="M2381.7,875.6c0,0,20.8,16.8,43,67.1c0,0-4.5,32.4-62.8,41.2C2303.6,992.7,2381.7,875.6,2381.7,875.6z"/>
		<path class="st3" d="M2240.6,869.8c0,0-21.4,3.3-30.9,45.1c-9.5,41.9-8.1,64.4-8.1,64.4s9.9,12.3,22.9,9.1
			C2237.5,985.3,2240.6,869.8,2240.6,869.8z"/>
		<path class="st2" d="M2481,1076.1c0,0,4.3-8.7-15.1-22.8c-14.7-10.7-49-20.1-49-20.1l-42.6,3.1c0,0,44.5,37.9,66.2,45.6
			C2461.1,1089.4,2479.9,1084.8,2481,1076.1z"/>
	</g>
	<g>
		<g>
			<path class="st2" d="M910.3,970.9c0,0,10.2-12.4,15.7-14.1c5.5-1.7,16.1-10,17.5-6.6c1.4,3.4-7.1,8.6-6.7,12.5
				c0.4,3.9,27.1,10.1,26.9,14.2c-0.2,4.1-6.3,14-16.4,12.9c-10.2-1.1-35.9-7.2-41.2-4.6C900.8,987.7,910.3,970.9,910.3,970.9z"/>
			<path class="st3" d="M635.6,910.7c15,20.2,32.6,36.2,50.7,48.7c57.5,40,119.9,46,119.9,46c14.9-4.8,60.9-9.8,88-14.2h0
				c11.8-1.9,20.1-3.7,20.6-5.3l-0.7-23.6c0,0-99.6-5.3-116.1-12.9c-26-22.4-49-51.5-63.9-74.2c-12.6-19.2-26.8-33.4-50.1-41.7
				C650.3,821.5,589,848,635.6,910.7z"/>
			<path class="st4" d="M681.3,944.5l5.1,14.9c57.5,40,119.9,46,119.9,46c12,0,60.9-9.8,88-14.2c-1.1,0.1-73.9,5.8-90,4.1
				c-16.2-1.7-91.7-67.1-91.7-67.1L681.3,944.5z"/>
			<path class="st1" d="M746.3,1693.5H636.3c-7.9-5.3,2.1-57.6,2.1-57.6s30-11.4,35.2,11.8c5.2,23.2,38.3,30.5,55.8,33.3
				C741.3,1682.9,745.1,1689.5,746.3,1693.5z"/>
			<path class="st1" d="M583.1,1693.5H473c-7.9-5.3,2.1-57.6,2.1-57.6s30-11.4,35.2,11.8c5.2,23.2,38.3,30.5,55.8,33.3
				C578.1,1682.9,581.9,1689.5,583.1,1693.5z"/>
			<path class="st0" d="M716.7,1160.1c0,0-4.9,61.7-10.8,135.9c-7.9,100.8-29.2,350.6-29.2,350.6s-14,11.9-44.9,5.4
				c0,0-26.3-86.2-34.2-184.6c-0.1-1.6-0.2-3.2-0.4-4.9c-7.3-100.2-18.7-311-18.7-311L716.7,1160.1z"/>
			<path class="st1" d="M718.4,1138.8c0,0-6.6,83-12.4,157.2l-108.4,171.5c-0.1-1.6-0.2-3.2-0.4-4.9c-7.3-100.2-18.7-311-18.7-311
				L718.4,1138.8z"/>
			<path class="st0" d="M686.8,1138.8c0,0-78.6,195.6-103.7,269.8c-17.9,52.8-68.4,238.1-68.4,238.1s-21.9,6.7-40.4-6.2
				c0,0-18.8-189.3,19.2-242.7c20.1-28.3,5-294.4,86.6-296.7C661.7,1098.8,686.8,1138.8,686.8,1138.8z"/>
			<path class="st2" d="M651.7,850.4c-12,6.3-23.7,6.7-33.9,4.6c-9.3-2-17.3-6.1-22.9-9.7c-5.8-3.7-9.3-7-9.3-7s0.4-0.6,1.1-1.7
				c3.5-6.1,14.3-27.9,9.5-62.9c-0.1-0.5,3.4,0.2,8.6,1.4c15.6,3.7,46.9,12.6,48.3,13c0,0,0.1,0,0.1,0s0.4,7.4,1.7,20.6
				c0.1,1.2,0.2,2.4,0.4,3.6c0.2,1.5,0.3,3.2,0.5,4.9C657.3,830.9,651.7,850.4,651.7,850.4z"/>
			<path class="st16" d="M655,808.7c-23.3,5.3-58-29-58-29c2.5-1.9,5.2-3.4,8-4.5c15.6,3.7,46.9,12.6,48.3,13c0,0,0.1,0,0.1,0
				S653.7,795.5,655,808.7z"/>
			<path class="st2" d="M662.9,786.3c0,0-9.6,3.4-21.8,5.1c-17.8,2.4-41.3,1-48.7-20.6c-12.4-36.3-28.3-58.1,8.3-73
				c19.6-7.9,32.1-8.4,40.6-5.3c7.4,2.6,11.7,7.8,15,13C663.4,716.6,677.7,779.9,662.9,786.3z"/>
			<path class="st17" d="M685,708.3c-21.2,15.2-50.4,0.3-59.5,4.3c-9.1,4-10.7,19.3-10.9,24.1c-0.2,4.8-0.8,8.9-13.1,6
				c-2-0.5-3.5-0.3-4.5,0.3c-5.1,3,1.4,17.8,3.4,20.9c0,0,2.8,10.5-3.5,15.7c-0.8,0.6-13.1,6-43-39.6c-4.7-7.2-9.2-23.3-1.9-38.9
				c7.2-15.5,37.5-30.6,63.1-38.5c9.6-3,16.7-2.9,22.3-0.8c9.3,3.4,14.3,12.2,19.2,21C664.9,697.6,685,708.3,685,708.3z"/>
			<path class="st3" d="M729,1105.9c-1.7,22.4-6.4,38.5-16.8,38.5c0,0-46.2,16.2-101.4,16.7c-10.8,0.1-26.1-2-38.7-4.1
				c-12.9-2.2-23.2-4.4-23.2-4.4c-11.1-2.6-23.3-9.4-21.7-22.1c0.9-7.2,1.6-16.5,2-27.3c1.2-29.3,1-69.7,1.2-108.3
				c0.1-23.7,0.3-46.8,1.1-66.3c0,0-10.9-76.5,1.2-89c14.2-14.7,55.8-19.2,58.4-18.6c0.8-0.2,1.6-0.4,2.4-0.5c0,0,35.4,20,61.8,5.2
				c0,0,0.3,0,0.7,0.1c6.4,1,38.4,8.4,49.5,20.1c3.8,4,19,28.7,19.4,55.8c0.6,37.8-0.9,80.7-0.9,80.7c0.4,6.1,1.1,14,1.8,23.1
				c0.8,9.6,1.6,20.5,2.3,31.8c0.4,5.7,0.7,11.5,1,17.4C729.9,1072.6,730.1,1090.7,729,1105.9z"/>
			<path class="st4" d="M591.3,820.9c0,0,39.2,40.4,67.2,32.2c0,0,3.7-5.5-8.9-7.2C637,844.1,623.4,844.8,591.3,820.9z"/>
			<path class="st11" d="M663.2,762.8c0,0,0.8,4.7-10.2,8.5c0,0-9.2,3.2-10.9-1.7C642.1,769.6,649.4,762.6,663.2,762.8z"/>
			<path class="st4" d="M566.4,963c0,0,0.1,109.4-37.2,140.1c1.2-29.3,1-69.7,1.2-108.3L566.4,963z"/>
			<path class="st2" d="M451.8,1167.8c0,0-19,29.8-20,41.2c-0.7,7.8,1,38.3,4.9,38.4c5.5,0.1,10.9-18.9,13-23.8
				c2.1-4.9,4.6-8.8,6.7-8.8c2.1,0-4.6,19,0,16.9c4.6-2.1,12.3-19.7,13-24c0.7-4.2-4.1-17.8-1.8-23.1
				C470,1179.3,451.8,1167.8,451.8,1167.8z"/>
			<path class="st3" d="M536.4,835.3c0,0-25.7,12.1-47.2,101.8c-16.2,67.6-47.2,240.3-47.2,240.3l26.2,10.8
				c0,0,96.1-220.7,109.9-251.7C591.8,905.5,536.4,835.3,536.4,835.3z"/>
		</g>
		<g>
			<g>
				<path class="st2" d="M1008.6,963c0,0,25.4,124.1,35,144.3c9.7,20.3,48.3,93.2,48.3,93.2l-11.3,7.8c0,0-69.6-72.1-72-79.8
					c-2.4-7.7-48-104.3-48-104.3L1008.6,963z"/>
				<path class="st1" d="M959.6,773.7c0,0-49.2-59.1-75.3-21.3c0,0-19.4,8.1-26.5,41.1c-7.2,33.7,15.3,59.4,26.9,53.1
					c7.4-4.1,13.1,9,13.1,9L959.6,773.7z"/>
				<path class="st1" d="M889.8,746.4c0,0-6.6-26.5-45.5-18.2c0,0,18.6-2.3,23.7,4.8c0,0-14.7-6.8-24-1.1
					c-9.2,5.7-10.8,24.7-9.4,30.5c1.4,5.8,11.6,23,18.3,23c6.8,0,14.7-5.9,14.7-5.9L889.8,746.4z"/>
				<path class="st2" d="M831.6,1160.5c19.3-43.3,28.6-55.6,28.9-69.2c0.3-10.8-5.1-22.4-15.4-50.9c-2.4-6.7-4.1-13.6-5.1-20.6
					c-8.2-55,23.6-114.5,43.4-118.5c5.5-1.5,14.8-21.3,14.7-53.3l2.5,0.5l41.6,8.2c0,0-0.9,13.1-1,25.4c0,10.3,0.6,20,2.9,21.3
					c3,0.3,4.8,0.5,4.8,0.5s34.7,48.2,37.6,93c2.9,44.8-27.8,64.3,0.2,153.9C1015.4,1242.2,820.9,1184.5,831.6,1160.5z"/>
				<path class="st13" d="M942.2,856.6c0,0-0.9,13.1-1,25.4c-23.3-0.7-35.6-21.9-40.6-33.7L942.2,856.6z"/>
				<path class="st1" d="M896.3,843.8c0,0-12.2-19.3-15.1-35.8c-2.1-11.8,3.9-55.4,47.8-49.1c0,0,12.7,1.3,24.7,9.3
					c9.5,6.4,23.3,20.3,7.9,58.4l-4,12.9L896.3,843.8z"/>
				<path class="st2" d="M950,868.3c0,0-55.1,0.9-55.1-33.4c0-34.3-7.2-57.3,28-59.4c35.2-2,42,11.1,44.8,22.5
					C970.4,809.5,964.3,867.2,950,868.3z"/>
				<path class="st1" d="M947.9,774.7c0,0-15.1,40.3-38.2,46.2c-23.2,6-33.2-0.2-33.2-0.2s17.8-14.1,21.4-38.7
					C897.9,781.9,936.5,755.5,947.9,774.7z"/>
				<path class="st1" d="M944.2,777.9c0,0,11.3,9,14,17.7c2.7,8.7,4,26.7,9.2,26.1c0,0,11.4-27.4-1.4-42.9
					C952.5,762.5,944.2,777.9,944.2,777.9z"/>
				<path class="st12" d="M880.4,1576.4c13.9,55.2,34.7,97.4,34.7,97.4l18.2-1.3c0,0-8.9-42.4-8.4-99.7c0.4-40,5.3-87.4,21.1-132.6
					c54.4-155.3,45.6-268.3,45.6-268.3l-102.3,12l-4.8,0.6c-0.4,47-1.6,110.7-2.7,160.6c-0.9,44.8-1.8,78.4-1.8,78.4
					C860.5,1465.9,867.6,1525.6,880.4,1576.4z"/>
				<path class="st2" d="M759.9,1206.6l16.5,5c0,0,54.6-90.6,59.5-114.1c1.6-7.7,5.6-23,10.2-40.2c9.6-35.6,22-79.2,22-79.2
					l4.1-17.6l13.9-60.2c0,0-26.6,2.7-42.2,9.2c-5.2,2.1-9.1,4.7-10.5,7.7c-11.4,25.1-22.8,88.6-30.9,133.8
					c-4.5,25.2-7.9,44.8-9.7,48.9C788,1111.5,772.9,1175.1,759.9,1206.6z"/>
				<path class="st0" d="M799.8,1518.2c-5,33.6-17.4,126.4-12.6,141.9l19.8-3.3c0,0,36.5-83.8,44.7-106.9
					c17-47.3,36.8-76.1,43.5-98.3c21-69.4,47.1-296,47.1-296l-103.7-5.1c-10.4,17.5-15,46.3-16.1,79c-2.7,82.5,8.3,177.9,11.2,193.5
					C825.3,1436.8,809.2,1455.1,799.8,1518.2z"/>
				<path class="st1" d="M946.3,779.3c0,0-10.8,42.2-40,55.7c0,0,29.2-25.9,31.7-53.8C940.5,753.4,946.3,779.3,946.3,779.3z"/>
				<path class="st7" d="M818.6,1191.8c-0.2,3.5,0,6.3,0.6,8.3c2.2,6.9,9.8,10.1,28.1,8.2c11.2-1.2,16.2-19.9,18.4-35.9
					c6.7,22.9,16.1,35.8,28.3,38.4c17.8,3.9,107.3,14.8,113.2-27.7c6.4-46.8-12.9-129.8-13.9-174.5c2.6-15.9,3.5-29.6,3.2-41.4
					c-0.7-31.8-10.1-49.7-17.3-56.9c-2-1.6-4.1-2.5-12.2-3.9c-4.2-0.7-10-1.5-18.2-2.6c0,0-3.3-0.4-3.3-0.3
					c1.5,2.7,21.8,33.4,20.2,41.3c-1.7,8.3-73.6,0.8-78.6-3.7c-5-4.5-12.8-39.4-12.8-39.4s-25.5,2.8-37.9,11.8c0,0,0,0.1,0.1,0.2
					c-1.5,1.1-2.6,2.2-3.3,3.4c-13.3,25.3-26.6,89.2-35.9,134.8c22.6,12.5,42.4,8.8,48.5,7.1C838,1111.6,819.8,1167.9,818.6,1191.8z
					"/>
				<g>
					<path class="st1" d="M904.7,1689.1h11.6c3.9-0.6,6.8-1.7,10.7-2.3c6.1-0.8,8.8,1.7,9.4,2.3c0.1,0.1,0.1,0.1,0.1,0.1h49.3
						c1.2-1.8,0-5.9-1.1-8.9c-0.8-2.1-2.5-3.6-4.6-4.2c-5.2-1.5-15.5-2.9-25-11.4c-5.3-4.8-25.6-17.6-25.6-17.6l-0.1,0
						c-0.4,0-2.6,0.7-11.8,8.5c-4.8,4-12.9-5.7-12.9-5.7s-1.5,1.3-2.7,3.6c-0.9,1.9-1.6,4.4-1.1,7.6c0.7,4.4-1.6,12.7-3.5,18.3
						c-1.1,3.4-2.1,5.8-2.1,5.8S894.7,1687.8,904.7,1689.1z"/>
					<path class="st18" d="M901.9,1653.4c2.8,2,8.6,5.8,12.5,6.3c5.2,0.7,15-12.7,15-12.7l-0.1,0c-0.4,0-2.6,0.7-11.8,8.5
						c-4.8,4-12.9-5.7-12.9-5.7S903.1,1651.1,901.9,1653.4z"/>
					<path class="st18" d="M904.7,1689.1h11.6c3.9-0.6,6.8-1.7,10.7-2.3c6.1-0.8,8.8,1.7,9.4,2.3c0.1,0.1,0.1,0.1,0.1,0.1h49.3
						c1.2-1.8,0-5.9-1.1-8.9c-1.5-1.3-1.9,5.8-2.7,6.9c-0.8,1.1-40.2,0.4-42.5-1.2c-2.3-1.7-9.1-4.5-18.6-2.3
						c-8.3,2-20.5-3.1-23.5-4.4c-1.1,3.4-2.1,5.8-2.1,5.8S894.7,1687.8,904.7,1689.1z"/>
				</g>
				<g>
					<path class="st1" d="M785.6,1689.1h11.6c3.9-0.6,6.8-1.7,10.7-2.3c6.1-0.8,8.8,1.7,9.4,2.3c0.1,0.1,0.1,0.1,0.1,0.1h49.3
						c1.2-1.8,0-5.9-1.1-8.9c-0.8-2.1-2.5-3.6-4.6-4.2c-5.2-1.5-15.5-2.9-25-11.4c-5.3-4.8-25.6-17.6-25.6-17.6l-0.1,0
						c-0.4,0-2.6,0.7-11.8,8.5c-4.8,4-12.9-5.7-12.9-5.7s-1.5,1.3-2.7,3.6c-0.9,1.9-1.6,4.4-1.1,7.6c0.7,4.4-1.6,12.7-3.5,18.3
						c-1.1,3.4-2.1,5.8-2.1,5.8S775.6,1687.8,785.6,1689.1z"/>
					<path class="st18" d="M782.9,1653.4c2.8,2,8.6,5.8,12.5,6.3c5.2,0.7,15-12.7,15-12.7l-0.1,0c-0.4,0-2.6,0.7-11.8,8.5
						c-4.8,4-12.9-5.7-12.9-5.7S784,1651.1,782.9,1653.4z"/>
					<path class="st18" d="M785.6,1689.1h11.6c3.9-0.6,6.8-1.7,10.7-2.3c6.1-0.8,8.8,1.7,9.4,2.3c0.1,0.1,0.1,0.1,0.1,0.1h49.3
						c1.2-1.8,0-5.9-1.1-8.9c-1.5-1.3-1.9,5.8-2.7,6.9c-0.8,1.1-40.2,0.4-42.5-1.2c-2.3-1.7-9.1-4.5-18.6-2.3
						c-8.3,2-20.5-3.1-23.5-4.4c-1.1,3.4-2.1,5.8-2.1,5.8S775.6,1687.8,785.6,1689.1z"/>
				</g>
				<path class="st19" d="M818.6,1191.8c12.3-4.1,28.1-15,47-39.5c50.2-64.9,4.3-141.1-1.9-142.5c-6.2-1.4-17.7,49.3-17.7,49.3
					C838,1111.6,819.8,1167.9,818.6,1191.8z"/>
				<path class="st7" d="M976.2,908.9c0,0,34.4,17.3,45.8,87.1c0,0-11.3,15.4-27.1,20c-2.3,0.7-4.6,1.1-7.1,1.2
					C968.4,1018.2,976.2,908.9,976.2,908.9z"/>
				<path class="st2" d="M1091.9,1200.6c0,0,19.3,15.9,18.8,23.1c-0.5,7.2-11.6,19.8-18.8,19.3c-7.2-0.5-11.3-34.6-11.3-34.6
					L1091.9,1200.6z"/>
				<g>
					<g>
						
							<rect x="1138.2" y="1206.7" transform="matrix(0.98 -0.1992 0.1992 0.98 -265.7971 256.3832)" class="st12" width="5.8" height="484.6"/>
					</g>
					
						<rect x="1091" y="1206.5" transform="matrix(-0.9795 0.2014 -0.2014 -0.9795 2420.2864 2220.3962)" class="st12" width="12.2" height="53.8"/>
				</g>
				<path class="st11" d="M939.2,847.9c0,0,1,4,11,3.4c0,0,8.5-0.5,8.2-5C958.4,846.4,950.2,843.2,939.2,847.9z"/>
			</g>
			<g>
				<path class="st2" d="M762.9,1199c0,0-24,14.7-27.4,21.1c-3.5,6.4-11.6,29.8-11.6,29.8s5.8,0.9,11.6-9.3
					c5.8-10.1,24.9-9.3,31.3-14.8c6.4-5.5,13.8-21.6,13.8-21.6L762.9,1199z"/>
				<path class="st2" d="M778,1209.2c0,0-3.8,17.8-8.4,23c-4.6,5.2-11,13.9-13.6,11.6c-2.6-2.3,2.9-21.7,2.9-21.7L778,1209.2z"/>
				<path class="st2" d="M738.6,1222.1c-0.6,0.9-20.5,22.1-20.5,22.1s7.2,3.3,9.3,0C729.4,1240.9,738.6,1222.1,738.6,1222.1z"/>
			</g>
		</g>
		<path class="st12" d="M936.1,826.3h-7.9c-3.6,0-6.5-2.9-6.5-6.5v-2.4c0-1.8,1.5-3.3,3.3-3.3h15.5c1.2,0,2.1,1,2.1,2.1v3.6
			C942.6,823.4,939.7,826.3,936.1,826.3z"/>
		<path class="st12" d="M959.7,826.3h7.9c3.6,0,6.5-2.9,6.5-6.5v-2.4c0-1.8-1.5-3.3-3.3-3.3h-15.5c-1.2,0-2.1,1-2.1,2.1v3.6
			C953.2,823.4,956.1,826.3,959.7,826.3z"/>
		<g>
			<path class="st12" d="M955.4,819.4c-0.1,0-6.8-2.9-13.2,0l-0.5-1.1c6.9-3.2,13.9-0.1,14.2,0L955.4,819.4z"/>
		</g>
	</g>
</g>
</svg>
