<?xml version="1.0" encoding="UTF-8"?>
<svg id="_Слой_1" data-name="Слой 1" xmlns="http://www.w3.org/2000/svg" viewBox="0 0 4030.29 2089.41">
  <defs>
    <style>
      .cls-1 {
        fill: #f99746;
      }

      .cls-2 {
        fill: #f9ddbf;
      }

      .cls-3, .cls-4 {
        fill: #004c0b;
      }

      .cls-5 {
        fill: #045918;
      }

      .cls-6 {
        fill: #ed975d;
      }

      .cls-7 {
        fill: #ed985f;
      }

      .cls-8 {
        fill: #ebf3fa;
      }

      .cls-9 {
        fill: #ed7d2b;
      }

      .cls-10 {
        fill: #e8945b;
      }

      .cls-11 {
        fill: #eac3a2;
      }

      .cls-12 {
        fill: #ef7e29;
      }

      .cls-13 {
        fill: #fff;
      }

      .cls-14 {
        fill: #ffb27d;
      }

      .cls-15 {
        fill: #b64c41;
      }

      .cls-16 {
        fill: #a9453d;
      }

      .cls-17 {
        fill: #06721d;
      }

      .cls-18 {
        fill: #067c1f;
      }

      .cls-19 {
        fill: #06771e;
      }

      .cls-4 {
        isolation: isolate;
      }

      .cls-4, .cls-20 {
        opacity: .2;
      }
    </style>
  </defs>
  <path class="cls-5" d="M3923.3,1783.48H83.55c-2.35,0-4.29-1.94-4.29-4.29v-1.38c0-2.35,1.94-4.29,4.29-4.29H3923.3c2.35,0,4.29,1.94,4.29,4.29v1.38c.14,2.35-1.8,4.29-4.29,4.29Z"/>
  <g>
    <path class="cls-3" d="M2090.38,995.23c-2.49,0-4.98-1.38-6.09-3.88l-22.43-48.32h-74.63c-3.74,0-6.65-3.05-6.65-6.65s3.05-6.65,6.65-6.65h78.92c2.63,0,4.98,1.52,6.09,3.88l24.23,52.2c1.52,3.32,.14,7.34-3.18,8.86-.97,.42-1.94,.55-2.91,.55Z"/>
    <path class="cls-3" d="M2042.47,946.49h-57.32c-5.54,0-10.11-4.57-10.11-10.11h0c0-5.54,4.57-10.11,10.11-10.11h57.32c5.54,0,10.11,4.57,10.11,10.11h0c0,5.54-4.43,10.11-10.11,10.11Z"/>
    <path class="cls-14" d="M1984.18,915.48c1.8,1.38,35.17-2.77,45.83,4.02,10.66,6.78,21.05,25.48,16.2,32.12s-27.55-13.43-34.2-13.02c-6.65,.42-25.89-5.54-25.89-5.54l-1.94-17.58Z"/>
    <path class="cls-2" d="M1994.29,912.71s3.46,6.09,3.46,11.35c-.14,8.86-3.46,13.15-3.46,13.15,0,0-40.29,3.18-83.49-3.05-24.09-3.46-49.15-9.83-68.68-21.46-26.58-15.65-51.37-71.31-69.78-124.47-19.52-56.35-31.85-109.94-31.85-109.94,9-21.88,33.09-35.17,53.17-31.85,11.08,1.8,36.97,10.25,42.92,18,9,11.77,34.48,119.77,54.41,170.86,4.29,11.08,103.29,77.4,103.29,77.4Z"/>
    <path class="cls-11" d="M1910.8,934.17c-24.09-3.46-49.15-9.83-68.68-21.46-26.58-15.65-51.37-71.31-69.78-124.47-.28-38.35-.28-70.06-.28-70.06l43.61,18.14c1.38,2.63,15.37,134.58,46.8,161.31,26.72,22.57,43.75,33.65,48.32,36.55Z"/>
    <rect class="cls-4" x="2449.53" y="1266.02" width="20.91" height="437.81"/>
    <g class="cls-20">
      <path class="cls-3" d="M2497.03,1736.27c0-20.49-16.62-37.25-37.25-37.25s-37.25,16.62-37.25,37.25,16.62,37.25,37.25,37.25,37.25-16.75,37.25-37.25Z"/>
      <path class="cls-1" d="M2447.19,1736.27c0-7.06,5.68-12.74,12.74-12.74s12.74,5.68,12.74,12.74-5.68,12.74-12.74,12.74-12.74-5.68-12.74-12.74Z"/>
    </g>
    <path class="cls-3" d="M1930.87,995.23c-2.49,0-4.98-1.38-6.09-3.88l-22.43-48.32h-74.63c-3.74,0-6.65-3.05-6.65-6.65s3.05-6.65,6.65-6.65h78.92c2.63,0,4.98,1.52,6.09,3.88l24.23,52.2c1.52,3.32,.14,7.34-3.18,8.86-.97,.42-1.94,.55-2.91,.55Z"/>
    <g class="cls-20">
      <g>
        <path class="cls-5" d="M2218.31,1755.65c-1.52-6.92,77.4-284.4,86.4-315.96l2.63,.69c-24.23,84.88-86.81,306.83-86.26,314.72l-2.77,.55Z"/>
        <path class="cls-5" d="M2104.09,1554.19c6.92-1.52,284.4,77.4,315.96,86.4l-.69,2.63c-84.88-24.23-306.83-86.81-314.72-86.26l-.55-2.77Z"/>
        <path class="cls-5" d="M2133.16,1496.73c7.06,1.25,232.47,180.97,258.23,201.46l-1.66,2.08c-68.95-54.97-249.64-198.41-257.12-200.9l.55-2.63Z"/>
        <path class="cls-5" d="M2426.56,1577.04c-6.65-2.49-292.29,37.25-324.83,41.81l.42,2.63c87.37-12.18,315.96-43.48,323.58-41.95l.83-2.49Z"/>
        <path class="cls-5" d="M2200.18,1447.86c5.54,4.57,111.6,272.76,123.64,303.23l-2.49,.97c-32.4-82.11-117.69-296.44-122.95-302.26l1.8-1.94Z"/>
        <path class="cls-5" d="M2391.25,1500.19c-7.06,1.11-234.97,177.92-260.86,198l1.66,2.08c69.78-54.14,252.27-195.09,259.75-197.44l-.55-2.63Z"/>
      </g>
      <circle class="cls-1" cx="2259.51" cy="1601.81" r="22.29"/>
      <path class="cls-3" d="M2084.29,1598.36c0-96.51,78.51-175.15,175.15-175.15s175.15,78.51,175.15,175.15-78.51,175.15-175.15,175.15-175.15-78.64-175.15-175.15Zm18.69,0c0,86.26,70.2,156.46,156.46,156.46s156.46-70.2,156.46-156.46-70.2-156.46-156.46-156.46-156.46,70.2-156.46,156.46Z"/>
    </g>
    <path class="cls-3" d="M1882.97,946.49h-57.32c-5.54,0-10.11-4.57-10.11-10.11h0c0-5.54,4.57-10.11,10.11-10.11h57.32c5.54,0,10.11,4.57,10.11,10.11h0c0,5.54-4.57,10.11-10.11,10.11Z"/>
    <path class="cls-7" d="M2389.17,1225.49s32.4,3.32,36.41,7.75,18.69,28.8,19.11,33.37c.42,4.57,.14,12.88-3.18,11.49s-17.31-23.68-24.51-23.95-29.77-9.83-29.77-9.83l1.94-18.83Z"/>
    <polygon class="cls-5" points="2355.25 1398.7 2053.55 1401.89 1917.86 977.65 2196.85 974.46 2355.25 1398.7"/>
    <path class="cls-7" d="M2257.91,996.06s5.95,156.04,20.49,171.55c9.42,9.97,110.91,57.88,110.91,57.88l-.97,19.11s-131.95-18.69-151.34-42.23c-38.35-46.52-40.98-173.07-42.78-186.5-1.8-13.43,36.41-40.43,63.69-19.8Z"/>
    <path class="cls-17" d="M2554.91,1656.1h-100.94s-3.74-16.06,2.91-27c5.82-9.69,3.6-15.23-.69-23.26,4.57,1.94,10.52,3.6,17.03,3.18,4.98-.28,10.38-2.63,14.95-5.26,4.29,4.98,22.98,26.03,28.8,30.18,6.37,4.71,35.86,3.05,37.94,22.15Z"/>
    <path class="cls-9" d="M2089.27,1286.83c6.78,40.43,42.51,69.51,83.63,69.09,50.81-.55,125.03-1.66,152.31-2.63,57.74-2.22,79.34,.14,79.2,1.8-2.63,24.23-4.71,13.85,22.15,12.05,0,0,95.12-2.63,66.6-67.71-28.38-65.08-298.52-85.29-322.33-82.52-20.35,2.22-91.94,7.2-81.55,69.92Z"/>
    <path class="cls-9" d="M2498.28,1324.77c-1.25,45.97-8.31,173.35,9.55,275.67,4.57,25.89-32.68,26.72-32.95,26.72-7.06,.83-19.52,1.38-23.68-3.74-28.66-35.58-69.23-201.04-58.29-269.72,5.4-33.51,38.77-32.95,65.77-45.28,16.75-7.48,40.15-1.94,39.6,16.34Z"/>
    <rect class="cls-3" x="2000.82" y="1256.1" width="20.91" height="349.47"/>
    <path class="cls-3" d="M2161.13,717.21c29.49-8.17,61.34-.83,84.6,18.97,10.25,8.72,21.74,19.8,32.26,32.95,26.31,32.68-18.42,69.09-11.49,80.31,6.92,11.22,21.74,19.52,16.89,43.89-4.85,24.51-44.72,58.15-58.15,60.37-136.52,22.02-200.49-50.26-156.87-93.74,43.61-43.48,21.46-101.63,57.32-126.69,11.22-7.75,23.68-12.88,35.45-16.06Z"/>
    <path class="cls-14" d="M2262.34,984.85c-10.94,8.58-24.78,15.78-42.37,21.05-66.18,19.38-95.12-35.86-106.89-74.08,8.86-5.82,17.31-7.34,22.29-8.31,4.85-.83,9.83-1.52,14.12-1.94,7.2-6.23,17.03-30.46,17.45-67.15l3.18,.69,53.58,11.35s-1.38,16.89-1.66,32.81c-.14,12.46,.28,24.37,2.91,27.14,3.74,1.11,7.06,2.22,7.06,2.22,.83,1.25,.83,.69,.55,.28,.69,.97,16.48,23.95,29.77,55.94Z"/>
    <path class="cls-7" d="M2223.71,866.33s-1.52,16.89-1.66,32.81c-30.05-1.25-45.55-28.94-51.92-44.31l53.58,11.49Z"/>
    <path class="cls-14" d="M2233.54,881.56s-71.31,.14-70.61-44.17c.55-44.31-8.17-74.21,37.25-76.15,45.55-1.94,54.14,15.09,57.6,29.91,3.32,14.82-5.68,89.31-24.23,90.41Z"/>
    <path class="cls-3" d="M2255.98,766.36c-10.8-13.57-19.25-10.66-23.95-6.78-38.63-22.02-64.11,9.28-64.11,9.28-5.26,31.71-28.38,49.71-28.38,49.71,0,0,13.15,9.28,42.92,.97,38.08-10.8,49.43-45,50.81-50.12,4.29,4.02,9.69,6.37,14.26,15.23,5.4,10.52,8.72,16.62,9.83,34.48,0,0,14.82-32.4-1.38-52.75Z"/>
    <rect class="cls-3" x="2334.18" y="1654.55" width="253.24" height="20.49"/>
    <path class="cls-1" d="M2058.26,1286.83c6.78,40.43,42.51,69.51,83.63,69.09,50.81-.55,125.03-1.66,152.31-2.63,57.74-2.22,79.34,.14,79.2,1.8-2.63,24.23-4.71,13.85,22.15,12.05,0,0,95.12-2.63,66.6-67.71-28.38-65.08-298.52-85.29-322.33-82.52-20.35,2.22-91.94,7.2-81.55,69.92Z"/>
    <path class="cls-2" d="M2057.98,1151.69c4.85-33.09-6.92-158.4,19.25-197.58,18.97-28.38,45.14-39.46,77.68-40.01,10.38,5.95,50.12,28.25,65.77,24.23,.14,0,.42-.14,.83-.28,7.34-2.22,9.83-7.62,3.32-11.77,0,0,26.58,5.68,34.75,15.09,7.89,9,7.62,28.25,10.11,51.09,.69,5.68,.69,11.35,1.38,16.89,3.18,25.61-5.12,28.38-33.37,102.18-13.85,36.14-7.34,64.94,1.94,84.18,8.31,17.17,2.49,37.94-13.71,48.05-55.66,35.31-163.94,96.51-167.67,42.92-3.88-54.28-6.92-89.17-.28-135Z"/>
    <path class="cls-14" d="M2152.41,991.22s26.72,181.52,44.58,196.89c11.49,9.97,126,28.38,126,28.38l1.94,17.58s-163.38,12.05-172.66-1.66c-37.66-54.97-64.11-197.44-67.71-211.98-3.74-14.54,35.58-48.74,67.85-29.21Z"/>
    <path class="cls-5" d="M2523.89,1654.71h-100.94s-3.74-16.06,2.91-27c5.82-9.69,3.6-15.23-.69-23.26,4.57,1.94,10.52,3.6,17.03,3.18,4.98-.28,10.38-2.63,14.95-5.26,4.29,4.98,22.98,26.03,28.8,30.18,6.37,4.71,35.86,3.05,37.94,22.15Z"/>
    <path class="cls-1" d="M2467.26,1324.77c-1.25,45.97-8.31,173.35,9.55,275.67,4.57,25.89-32.68,26.72-32.95,26.72-7.06,.83-19.52,1.38-23.68-3.74-28.66-35.58-69.23-201.04-58.29-269.72,5.4-33.51,38.77-32.95,65.77-45.28,16.75-7.48,40.15-1.94,39.6,16.34Z"/>
    <path class="cls-13" d="M2245.45,855.39s-6.92-2.22-25.61,.42c0,0,1.38,7.34,15.37,7.2,7.89,0,10.25-7.62,10.25-7.62Z"/>
    <path class="cls-2" d="M2177.88,1045.63s-48.46,41.95-104.68,27.69c0,0-20.22-135.41,50.12-137.35,0,0,58.43,23.12,54.55,109.66Z"/>
    <rect class="cls-3" x="2021.7" y="1374.17" width="338.53" height="26.58"/>
    <rect class="cls-3" x="2249.61" y="1359.01" width="27.97" height="331.19" transform="translate(-459.04 1336.09) rotate(-30)"/>
    <path class="cls-5" d="M2021.7,1374.19c6.23,0,29.63-22.15,66.6-20.91,36.83,1.25,242.58,0,242.58,0,0,0,26.86-2.77,29.35,21.05h-338.53v-.14Z"/>
    <rect class="cls-3" x="2331.02" y="1266.02" width="20.91" height="437.81"/>
    <path class="cls-14" d="M2322.99,1216.49s36.28,2.08,40.15,6.51c4.02,4.43,18.69,28.8,19.11,33.37,.42,4.57,.14,12.88-3.18,11.49s-17.17-25.34-24.37-25.75-29.91-8.03-29.91-8.03l-1.8-17.58Z"/>
    <path class="cls-3" d="M1987.64,1278.38h394.89c0-24.23-19.66-43.89-43.89-43.89h-324.83c-14.4,0-26.17,11.77-26.17,26.17v17.72Z"/>
    <g>
      <g>
        <path class="cls-5" d="M1970.19,1755.65c-1.52-6.92,77.4-284.4,86.4-315.96l2.63,.69c-24.23,84.88-86.81,306.83-86.26,314.72l-2.77,.55Z"/>
        <path class="cls-5" d="M1855.97,1554.19c6.92-1.52,284.4,77.4,315.96,86.4l-.69,2.63c-84.88-24.23-306.83-86.81-314.72-86.26l-.55-2.77Z"/>
        <path class="cls-5" d="M1885.04,1496.73c7.06,1.25,232.47,180.97,258.23,201.46l-1.66,2.08c-68.95-54.97-249.64-198.41-257.12-200.9l.55-2.63Z"/>
        <path class="cls-5" d="M2178.3,1577.04c-6.65-2.49-292.29,37.25-324.83,41.81l.42,2.63c87.37-12.18,315.96-43.48,323.58-41.95l.83-2.49Z"/>
        <path class="cls-5" d="M1952.06,1447.86c5.54,4.57,111.6,272.76,123.64,303.23l-2.49,.97c-32.4-82.11-117.69-296.44-122.95-302.26l1.8-1.94Z"/>
        <path class="cls-5" d="M2143.13,1500.19c-7.06,1.11-234.97,177.92-260.86,198l1.66,2.08c69.78-54.14,252.27-195.09,259.75-197.44l-.55-2.63Z"/>
      </g>
      <path class="cls-1" d="M1989.03,1601.82c0-12.32,9.97-22.29,22.29-22.29s22.29,9.97,22.29,22.29-9.97,22.29-22.29,22.29-22.29-9.97-22.29-22.29Z"/>
      <path class="cls-3" d="M1836.17,1598.36c0-96.51,78.51-175.15,175.15-175.15s175.15,78.51,175.15,175.15-78.51,175.15-175.15,175.15-175.15-78.64-175.15-175.15Zm18.69,0c0,86.26,70.2,156.46,156.46,156.46s156.46-70.2,156.46-156.46-70.2-156.46-156.46-156.46-156.46,70.2-156.46,156.46Z"/>
    </g>
    <g>
      <path class="cls-3" d="M2378.51,1736.27c0-20.49-16.62-37.25-37.25-37.25s-37.25,16.62-37.25,37.25,16.62,37.25,37.25,37.25,37.25-16.75,37.25-37.25Z"/>
      <path class="cls-1" d="M2328.67,1736.27c0-7.06,5.68-12.74,12.74-12.74s12.74,5.68,12.74,12.74-5.68,12.74-12.74,12.74-12.74-5.68-12.74-12.74Z"/>
    </g>
    <path class="cls-18" d="M1635.26,702.39c-4.98-9.69,109.38-44.45,111.18,50.95,0,0,214.2-5.26,111.88-124.61-35.45-41.4-31.71-75.46-30.74-107.31,1.11-31.85-22.02-124.34-101.35-114.92,0,0-20.77-8.45-46.66,4.98-58.85,30.46-190.94,326.07-44.31,290.9Z"/>
    <path class="cls-3" d="M1490.29,1665.1s-23.95,21.88-19.38,37.52c4.71,15.51,26.31,25.89,29.21,45,2.91,18.97,14.68,29.35,25.2,29.35h50.26s7.75-13.43-10.94-17.45c-18.69-4.02-25.75-26.45-24.65-47.08,1.11-20.77-1.8-48.46-1.8-48.46l-39.88-9.28-8.03,10.38Z"/>
    <path class="cls-3" d="M1693.41,1674.37s-8.58,93.88,1.94,99.14h135.97s-1.25-17.03-22.85-20.49c-21.6-3.46-59.68-16.2-66.18-44.45-6.51-28.25-48.88-34.2-48.88-34.2Z"/>
    <path class="cls-14" d="M1597.32,1008.52c27.69-62.31,44.72-80.17,41.54-99.41-2.35-14.4,7.34-268.06,7.34-268.06,3.32-.97,9.83-1.94,13.57-2.77,11.35-2.49,20.77-10.52,24.78-21.46,4.71-13.29,8.45-32.81,8.45-57.18l3.6,.69,59.81,11.77s-1.38,18.83-1.38,36.55v.42c-.14,15.37,9.97,28.94,24.78,33.23,7.62,2.22,14.12,4.02,14.12,4.02,0,0,22.02,62.72,26.17,127.11,4.15,64.38-39.88,92.35,.28,220.98,40.85,131.4-238.29,48.6-223.06,14.12Z"/>
    <path class="cls-10" d="M1756.14,572.1s-1.38,18.83-1.38,36.55c-33.51-.97-51.09-31.43-58.43-48.32l59.81,11.77Z"/>
    <path class="cls-14" d="M1767.35,588.85s-79.2,1.25-79.2-48.05-10.25-82.38,40.15-85.29c50.54-2.91,60.37,15.92,64.38,32.4,4.02,16.48-4.85,99.41-25.34,100.94Z"/>
    <path class="cls-18" d="M1764.44,454.41s-21.6,57.88-54.97,66.32c-33.23,8.58-47.63-.42-47.63-.42,0,0,25.48-20.22,30.74-55.66,0,.14,55.52-37.8,71.86-10.25Z"/>
    <path class="cls-18" d="M1759.04,459.12s16.06,5.95,22.71,17.72c6.51,11.49,12.05,26.58,10.66,45.28,0,0,16.34-39.32-2.08-61.61-19.38-23.54-31.29-1.38-31.29-1.38Z"/>
    <path class="cls-8" d="M1750.04,558.25s5.4,7.2,16.34,6.65c8.86-.42,12.18-8.03,12.18-8.03,0,0-16.06-3.88-28.52,1.38Z"/>
    <path class="cls-2" d="M1808.61,897.62l-78.51,23.4-24.92-6.09-70.75-17.31s-9.14-3.05-17.31-21.74c-1.52-3.6-4.29-14.4-7.2-27.14-3.18-14.12-6.51-30.74-8.45-42.51-2.77-17.31-8.31-38.77-13.02-61.89h0c-3.46-16.89-6.65-34.75-8.03-52.48-1.94-23.95,15.65-45.14,39.46-47.77l26.31-2.91c83.35,67.98,147.46,5.26,147.46,5.26,0,0,21.88,39.05,36.28,95.26,14.4,56.08-21.32,155.91-21.32,155.91Z"/>
    <path class="cls-9" d="M1803.63,912.71s38.91,121.01,41.4,162.27c2.49,41.26-74.35,585.41-77.4,604.38-2.91,17.86-25.2,29.35-25.2,29.35,0,0-10.25,6.09-24.78,1.94-20.22-5.68-26.58-12.6-26.58-12.6,0,0-30.32-388.1-11.49-526.7,18.83-138.6,18.97-258.5,18.97-258.5h105.09v-.14Z"/>
    <path class="cls-1" d="M1638.86,909.11s-59.26,79.61-64.8,133.34c-5.54,53.86-8.72,242.72-20.49,295.2-11.77,52.48-55.11,153.41-55.11,316.93,0,0,4.43,9.42,18.42,14.4,4.43,1.66,10.38,3.18,16.2,4.43,11.49,2.63,23.26-2.91,28.38-13.43,29.21-58.98,122.54-248.95,127.24-288.41,3.32-27.97,32.81-212.67,97.06-321.09,15.37-26.03-9.42-129.46-9.42-129.46l-137.49-11.91Z"/>
    <path class="cls-13" d="M1751.84,559.64s1.38,5.82,15.78,4.85c0,0,12.18-.69,11.77-7.2,0,.14-11.77-4.43-27.55,2.35Z"/>
    <path class="cls-3" d="M1809.86,894.02s-15.65,12.32-46.66,13.02c-37.11,.69-128.77-9.42-128.77-9.42,0,0-4.02,11.35-3.88,23.4,0,0,112.15,28.25,177.09,4.15-.14,0,8.17-15.78,2.22-31.15Z"/>
    <path class="cls-13" d="M1755.17,919.77c0-10.52,7.62-19.11,16.89-19.11s16.89,8.58,16.89,19.11-7.62,19.11-16.89,19.11-16.89-8.45-16.89-19.11Zm5.54,0c0,7.48,5.12,13.57,11.35,13.57s11.35-6.09,11.35-13.57-5.12-13.57-11.35-13.57c-6.23,.14-11.35,6.23-11.35,13.57Z"/>
    <path class="cls-11" d="M1676.52,894.02c-30.32-15.51-51.78-30.74-66.74-45.28-3.18-14.12-6.51-30.74-8.45-42.51-2.77-17.31-12.32-59.95-17.03-83.21l126.14,181.66c.14,0,5.82,9.69-33.92-10.66Z"/>
    <path class="cls-11" d="M1721.25,773s56.08,89.03,72.28,105.09c16.2,16.06-66.32-12.74-66.32-12.74l-5.95-92.35Z"/>
    <path class="cls-14" d="M1848.77,915.89c1.8,1.38,35.17-2.77,45.83,4.02,10.66,6.78,21.05,25.48,16.2,32.12-4.85,6.65-27.55-13.43-34.2-13.02-6.65,.28-25.89-5.54-25.89-5.54l-1.94-17.58Z"/>
    <path class="cls-2" d="M1584.45,723.02s59.12,157.43,113.95,189.69c54.83,32.26,152.31,24.51,152.31,24.51,0,0,2.77-4.29,3.6-13.57,.42-4.57-3.6-10.94-3.6-10.94,0,0-99.14-66.32-103.43-77.54-19.94-51.09-48.88-116.44-60.92-125.17-12.18-8.58-88.34-19.8-101.91,13.02Z"/>
  </g>
  <g>
    <g>
      <rect class="cls-18" x="2378.12" y="1408.03" width="733.59" height="8.72" transform="translate(814.07 3820.96) rotate(-78.51)"/>
      <rect class="cls-18" x="2770.74" y="1076.9" width="81.41" height="18.55" transform="translate(1181.3 3621.25) rotate(-78.38)"/>
    </g>
    <g>
      <path class="cls-14" d="M3150.98,1687.11l24.51-7.89s5.12-66.46-5.82-146.21c-6.92-50.54-19.52-105.23-42.51-149.12-10.38-19.94-22.85-37.52-37.8-51.65,0,0-18.83-43.61-43.75-102.04-27.69-64.94-201.04-83.91-102.04,52.06,20.35,27.83,42.09,76.98,68.12,106.89,44.58,50.95,76.15,110.49,97.75,162.83,30.88,74.77,41.54,135.14,41.54,135.14Z"/>
      <path class="cls-14" d="M3206.78,1690.85c7.48,12.05-8.58,23.81-28.52,34.89-19.8,11.08-11.63,12.18-36.97,31.15-25.34,18.83-40.29,16.75-44.17,13.98-3.46-2.49,6.92-14.12,17.86-26.86,1.38-1.66,2.77-3.18,4.15-4.85,12.18-14.54,13.98-32.81,19.66-51.78,5.4-18-3.18-62.58-3.18-62.58l33.92-26.86s6.92,40.57,10.66,57.46c2.22,9.97,10.38,18.28,16.89,24.37,3.46,3.32,7.06,6.78,9.69,11.08Z"/>
      <path class="cls-5" d="M3178.25,1725.74c-19.8,11.08-11.63,12.18-36.97,31.15-25.34,18.83-40.29,16.75-44.17,13.98-3.46-2.49,6.92-14.12,17.86-26.86l.28,.14s22.85-3.05,42.51-20.49c15.92-14.12,28.38-34.06,39.32-43.89,3.6,3.32,7.2,6.78,9.83,11.08,7.34,11.91-8.72,23.82-28.66,34.89Z"/>
    </g>
    <path class="cls-15" d="M2981.22,411.35s59.81-7.34,89.86,48.32c30.05,55.66,27.69,136.24,56.77,174.18,29.08,38.08-4.85,74.08-4.85,74.08l-227.07,7.62s-15.78-42.51,0-93.46c15.78-50.95-61.2-203.12,85.29-210.74Z"/>
    <path class="cls-14" d="M2778.94,1086.48c2.35,8.86,9.97,28.94,15.78,28.94,4.85,0,6.51-24.51,12.74-29.77,9-7.62,16.34-23.4,17.45-27.28,2.35-7.89,4.71-9.55,4.71-9.55h0s71.72-131.26,77.4-164.77c1.8-10.94,6.51-32.81,12.05-57.46,5.95-26.72,13.02-56.63,18.14-78.92-22.85-4.43-48.32-6.09-68.95-6.51-4.15,27.14-8.03,54.97-11.22,79.06-4.85,35.86-8.45,63.83-10.8,69.78-6.23,16.34-23.4,104.68-39.6,150.64-1.8,4.57-7.06,16.2-12.88,20.22-7.06,4.98-17.03,16.75-14.81,25.61Z"/>
    <path class="cls-14" d="M2883.2,768.44c4.15-63.41,53.17-131.67,53.17-131.67,0,0,1.8-.14,4.85-.42,1.66-.14,3.18-1.25,3.74-2.77,1.8-4.98,2.35-15.92,2.35-27.41,0-17.45-1.38-36-1.38-36l58.85-11.63,3.46-.69c-.14,29.63,5.54,51.92,11.63,64.38,2.91,5.95,8.58,9.97,15.09,10.94,12.6,1.8,34.89,5.54,49.98,11.77,7.34,3.05,12.88,6.65,14.82,10.94,16.06,35.31-220.7,175.98-216.55,112.57Z"/>
    <path class="cls-10" d="M2945.92,570.02s1.38,18.55,1.38,36c32.95-.97,50.4-31.01,57.46-47.63l-58.85,11.63Z"/>
    <path class="cls-14" d="M2934.84,586.64s77.95,1.25,78.09-47.21c0-48.6,10.11-81.14-39.6-84.04-49.85-2.91-59.54,15.65-63.41,31.85-4.01,16.2,4.71,97.75,24.92,99.41Z"/>
    <path class="cls-14" d="M2826.01,1718.54l25.06,6.09s39.32-53.86,72-127.38c20.77-46.52,38.77-99.69,42.37-149.12,1.66-22.43,.28-44.03-4.98-63.83,0,0,7.06-47.08,16.62-109.8,10.66-69.78,24.37-158.95,35.17-224.44l-6.51-1.94-106.48-62.31s-48.88,111.46-36.41,279.13c2.49,34.34-4.71,87.64,1.66,126.69,11.08,66.88,6.51,134.03-2.63,189.97-13.15,80.03-35.86,136.94-35.86,136.94Z"/>
    <path class="cls-15" d="M2912.13,460.22c12.05-14.54,21.18-11.35,26.31-7.06,41.81-23.12,70.06,11.22,70.06,11.22,5.26,34.89,30.32,54.83,30.32,54.83,0,0-13.85,7.34-46.94,.42-39.32-8.31-50.12-52.61-51.65-58.29-4.71,4.29-14.12,13.57-17.03,22.71-3.88,12.32-5.68,37.8-13.02,36.97,0-.28-16.06-38.91,1.94-60.78Z"/>
    <path class="cls-2" d="M2834.74,1429.86c94.15,53.86,341.99-31.85,341.72-36.83-1.25-26.31-25.2-184.84-53.17-336.04-17.17-93.04-63-127.8-55.66-133.61l.14-.14c28.25-20.08,50.81-231.64,31.98-267.5-.97-1.8-2.49-3.32-4.57-4.85,.14-.14,.14-.28,.14-.28-17.58-12.88-53.58-16.75-53.58-16.75,0,0-19.38,47.49-25.34,54.97-38.49,48.05-107.44,26.31-98.03-3.6,3.32-10.94,20.77-45.14,22.98-49.01,.14-.14-4.85,.42-4.85,.42-11.63,1.52-19.8,2.63-25.61,3.74-11.63,1.94-14.4,3.32-17.31,5.54-10.11,10.11-23.4,35.45-24.51,80.44-.42,16.75-17.86,201.74,38.63,198.55,1.25-.14,.14,2.91-2.22,8.72-8.03,18.28-30.6,64.25-37.11,123.23-21.6,191.9-33.65,373.01-33.65,373.01Z"/>
    <path class="cls-13" d="M2954.5,557.01s-1.11,6.09-16.06,5.95c0,0-12.6-.14-12.46-6.65,0-.14,11.77-5.4,28.52,.69Z"/>
    <path class="cls-14" d="M2871.57,1751.08c0,14.12-19.94,15.78-42.65,14.68-22.71-.97-16.34,4.29-47.91,6.92-31.57,2.77-43.2-6.92-45-11.35-1.66-3.88,13.29-8.31,29.22-13.43,2.08-.69,4.02-1.25,6.09-1.94,18-5.95,29.22-20.63,44.03-33.65,13.98-12.46,30.32-54.83,30.32-54.83l42.92-4.98s-15.51,38.08-21.18,54.41c-3.32,9.69-.83,20.91,1.52,29.63,1.38,4.71,2.63,9.55,2.63,14.54Z"/>
    <path class="cls-5" d="M2828.92,1765.76c-22.71-.97-16.34,4.29-47.91,6.92-31.57,2.77-43.2-6.92-45-11.35-1.66-3.88,13.29-8.31,29.22-13.43l.28,.28s21.05,9.42,46.94,4.98c21.05-3.6,41.95-13.98,56.49-16.62,1.25,4.71,2.49,9.55,2.49,14.54,.14,14.12-19.8,15.65-42.51,14.68Z"/>
    <path class="cls-5" d="M2834.74,1429.86c94.15,53.86,341.99-31.85,341.72-36.83-1.25-26.31-25.2-184.84-53.17-336.04-17.17-93.04-63-127.8-55.66-133.61-1.8,1.38-28.25,22.85-76.98,19.94-43.61-2.63-77.12-8.03-85.43-9.55-8.03,18.28-30.6,64.25-37.11,123.23-21.32,191.77-33.37,372.87-33.37,372.87Z"/>
    <path class="cls-18" d="M3067.76,923.23s-77.12,32.12-160.2,1.8l-4.15,13.02s85.57,29.77,167.81-4.15l-3.46-10.66Z"/>
    <path class="cls-18" d="M2924.04,525.99h-12.74c-5.82,0-10.52-4.71-10.52-10.52v-3.88c0-2.91,2.35-5.26,5.26-5.26h25.06c1.94,0,3.46,1.52,3.46,3.46v5.95c-.14,5.54-4.85,10.25-10.52,10.25Z"/>
    <path class="cls-18" d="M2962.12,525.99h12.74c5.82,0,10.52-4.71,10.52-10.52v-3.88c0-2.91-2.35-5.26-5.26-5.26h-25.06c-1.94,0-3.46,1.52-3.46,3.46v5.95c.14,5.54,4.71,10.25,10.52,10.25Z"/>
    <path class="cls-18" d="M2955.19,514.78c-.14,0-10.94-4.71-21.46,0l-.83-1.66c11.22-5.12,22.43-.28,22.98,0l-.69,1.66Z"/>
    <g>
      <path class="cls-14" d="M3152.78,872.7c.97-1.11-40.57-14.54-64.94-8.72-14.54,3.46-8.58,20.91,3.32,22.15,11.91,1.11,53.72-3.74,61.61-13.43Z"/>
      <path class="cls-14" d="M3081.19,867.99s-13.43,18-13.43,26.45,7.34,28.11,14.4,26.03c7.2-2.22,10.11-21.05,11.22-25.48,1.11-4.43,9.28-7.34,11.22-13.43,1.94-5.95,2.22-8.45,2.22-8.45l-25.62-5.12Z"/>
    </g>
    <path class="cls-14" d="M3117.75,697.27c-.14-.14,106.75,178.61,93.04,211.7-13.71,33.09-23.81,4.85-35.86-8.31-2.08-2.22-98.03-126.14-94.98-146.21,2.91-19.8,37.8-57.18,37.8-57.18Z"/>
    <g>
      <g id="man">
        <path class="cls-14" d="M3066.52,895.4s-46.38,5.82-50.81,9.14-14.95,25.34-13.85,32.12c1.11,6.78,16.06,17.45,21.18,17.45s6.92-11.35,11.77-13.85c4.71-2.49,9.28-3.18,12.88-4.15,6.92-1.94,20.22-7.89,20.22-7.89l-1.38-32.81Z"/>
        <path class="cls-3" d="M3277.25,673.45s-61.06,165.32-87.37,178.06c-26.31,12.74-123.23,43.89-123.23,43.89v37.94s98.72,1.52,147.6-12.74c48.88-14.26,112.71-67.71,112.71-67.71l-49.71-179.44Z"/>
        <path class="cls-3" d="M3404.77,516.99l-59.81,113.4-14.26,.97-6.51,18.14-59.95,180.55c.14-.14-32.95-229.43,140.54-313.06Z"/>
        <path class="cls-3" d="M3305.08,617.24s-66.05,243.69-72.41,476.16c0,0,54.83,19.11,140.95,4.02,86.4-15.37-68.54-480.18-68.54-480.18Z"/>
        <g>
          <path class="cls-3" d="M3606.37,1775.03h59.4c7.48-4.02,14.12-13.29,16.2-27.28,2.91-19.11,24.37-29.63,28.94-45.28,4.57-15.65-19.11-37.66-19.11-37.66l-4.02-5.12-4.15-5.26-39.46,9.28s-.97,9.42-1.52,21.32c-.42,8.58-.69,18.55-.14,27.42,1.11,20.91-5.82,43.34-24.37,47.35-13.71,3.05-13.01,11.22-11.77,15.23Z"/>
          <path class="cls-3" d="M3261.61,1775.03h135.83c6.51-8.03,4.15-37.38,3.18-47.08-.14-1.94-.28-3.05-.28-3.05,0,0-46.38-37.11-52.75-8.72-.14,.83-.42,1.8-.69,2.63-8.03,26.58-44.03,38.63-64.8,42.09-13.71,2.22-18.69,9.14-20.49,14.12Z"/>
          <path class="cls-1" d="M3287.36,1016.55s7.06,87.92,15.37,193.57c11.22,143.58,24.78,319.84,26.17,353.21,2.35,58.01,11.63,150.78,11.63,150.78,0,0,22.01,22.02,66.05,12.74,0,0,39.32-132.37,50.54-272.49,.14-2.35,.42-4.57,.55-6.92,10.38-142.61,26.72-443.07,26.72-443.07l-197.03,12.18Z"/>
          <path class="cls-9" d="M3287.36,1016.55s7.06,87.92,15.37,193.57l154.38,244.24c.14-2.35,.42-4.57,.55-6.92,10.38-142.61,26.72-443.07,26.72-443.07l-197.03,12.18Z"/>
          <path class="cls-1" d="M3319.62,1027.08s126.97,318.32,210.46,467.99c83.49,149.54,109.66,191.35,109.66,191.35,0,0,47.91-19.11,52.2-32.12,0,0-31.98-288.83-87.78-359.16-31.57-39.74-68.68-159.23-70.48-200.9-1.8-41.81-11.35-124.34-11.35-124.34l-202.7,57.18Z"/>
        </g>
        <path class="cls-14" d="M3351.19,562.96c49.57,15.65,135.55-26.58,135.55-26.58,0,0-45.69-34.34-43.34-105.78l-38.35,30.88-26.03,21.05s.14,12.32,2.91,34.06c.55,4.02,1.11,8.17,1.8,12.74,.55,3.6-.97,7.34-4.15,9.28-18.14,11.22-28.38,24.37-28.38,24.37Z"/>
        <path class="cls-13" d="M3281.96,1023.89c1.52,1.25,3.18,1.94,5.26,1.94,18.69-.28,72.97,10.11,118.94,5.4,38.77-3.74,73.11-15.23,109.94-31.71,4.85-2.22,16.2-8.17,15.92-13.71-.14-5.95-.69-14.68-1.52-25.61-2.63-38.08-7.2-103.43-2.77-178.89,.83-13.98,1.25-27.97,1.25-41.68,.42-102.32-19.94-192.18-60.65-222.64,0,0-28.38,15.92-48.05,22.29-19.25,6.09-29.22,4.98-39.18-1.66,0,0-19.52,9.69-27.83,18.69-19.25,21.05-34.34,48.88-44.17,88.89-8.45,34.06-16.34,83.63-19.11,147.32-1.25,28.66-9.28,230.4-8.03,231.37Z"/>
        <path class="cls-5" d="M3564.28,1071.25c-125.31,78.51-227.49,38.77-227.49,38.77-18.28-143.31-8.17-316.24-5.82-358.47,6.09-185.12,137.21-234.69,137.21-234.69l54.69,169.06,8.03,75.18,14.54,135.83,18.83,174.32Z"/>
        <path class="cls-6" d="M3378.88,482.52s.14,12.32,2.91,34.06c28.94-4.98,61.61-51.65,61.61-51.65-14.68-4.29-27.55-4.98-38.49-3.46l-26.03,21.05Z"/>
        <path class="cls-14" d="M3357.42,481.13s89.44,14.82,97.75-40.98c8.45-55.8,25.61-91.52-31.15-103.29-56.77-11.91-71.03,7.75-78.37,25.75-7.34,18-11.22,113.26,11.77,118.52Z"/>
        <path class="cls-14" d="M3610.8,967.68s9.55,12.74,9.97,17.86c2.63,34.61-13.15,39.32,27.69,58.57,0,0,17.45,6.65,17.72-6.92,.28-13.57-12.18-13.85-9.83-32.81,2.63-21.88,2.35-22.15-12.05-33.51l-9.55-15.78-23.95,12.6Z"/>
        <path class="cls-5" d="M3455.31,434.89s-9.14-1.52-7.75-14.12c1.52-12.6,1.52-29.21-8.86-26.03-10.25,3.05-10.8,11.35-14.95,6.51-4.15-4.85-4.29-25.06-34.89-26.45-30.6-1.38-42.92,9.28-57.18,3.05-14.26-6.23-14.95-27.69-14.95-27.69,0,0,4.02,7.62,10.11,10.11,0,0-23.68-32.4,3.74-54.69,27.42-22.29,55.38-7.62,71.31-6.78,35.03,2.08,57.6,4.15,69.09,27.28,11.49,22.85,6.78,86.68-15.65,108.83Z"/>
        <path class="cls-14" d="M3625.89,982.77s-9.28,9.55-9.83,13.57c-1.94,12.88-6.09,18.42-4.02,19.8,4.43,2.91,10.38-6.65,13.15-15.09,2.91-8.45,.69-18.28,.69-18.28Z"/>
        <path class="cls-3" d="M3545.59,896.93c-27.42-70.2-104.12-188.72-104.12-188.72l89.58,52.89,14.54,135.83Z"/>
        <path class="cls-5" d="M3635.17,977.37c-15.37,3.05-32.12,1.8-32.12,1.8,0,0-45.69-141.37-51.65-154.24-3.74-8.31-62.17-67.71-103.01-108.69-23.95-24.09-31.85-59.95-19.94-91.94l39.74-107.44s30.88,18.14,63.55,74.49c40.43,69.65,84.74,181.94,92.63,200.07,23.54,54.55,31.85,176.81,31.85,176.81,0,0-8.86,6.78-21.05,9.14Z"/>
        <path class="cls-3" d="M3468.33,516.99l-59.81,113.4-30.6-11.08,9.97,30.32-59.95,180.55c0-.28-33.09-229.57,140.4-313.2Z"/>
      </g>
      <path class="cls-13" d="M3351.19,449.56s3.46,9.14,12.18,9.42,15.37-8.17,15.37-8.17c0,0-18.83-4.43-27.55-1.25Z"/>
    </g>
    <path class="cls-2" d="M3095.18,650.88s28.8,23.26,59.54,92.91c0,0-6.23,44.86-86.95,57.05-80.72,12.18,27.42-149.95,27.42-149.95Z"/>
    <path class="cls-2" d="M2899.81,642.85s-29.63,4.57-42.78,62.45c-13.15,58.01-11.22,89.17-11.22,89.17,0,0,13.71,17.03,31.71,12.6,18-4.29,22.29-164.21,22.29-164.21Z"/>
    <path class="cls-14" d="M3232.67,928.49s5.95-12.05-20.91-31.57c-20.35-14.82-67.85-27.83-67.85-27.83l-58.98,4.29s61.61,52.48,91.66,63.14c28.52,10.38,54.55,4.02,56.08-8.03Z"/>
  </g>
  <g>
    <g>
      <path class="cls-14" d="M1057.89,782.84s14.12-17.17,21.74-19.52c7.62-2.35,22.29-13.85,24.23-9.14s-9.83,11.91-9.28,17.31c.55,5.4,37.52,13.98,37.25,19.66-.28,5.68-8.72,19.38-22.71,17.86-14.12-1.52-49.71-9.97-57.05-6.37-7.34,3.46,5.82-19.8,5.82-19.8Z"/>
      <path class="cls-2" d="M677.54,699.48c20.77,27.97,45.14,50.12,70.2,67.43,79.61,55.38,166.01,63.69,166.01,63.69,20.63-6.65,84.32-13.57,121.84-19.66h0c16.34-2.63,27.83-5.12,28.52-7.34l-.97-32.68s-137.91-7.34-160.75-17.86c-36-31.01-67.85-71.31-88.48-102.74-17.45-26.58-37.11-46.25-69.37-57.74-46.66-16.62-131.54,20.08-67.01,106.89Z"/>
      <path class="cls-11" d="M740.81,746.28l7.06,20.63c79.61,55.38,166.01,63.69,166.01,63.69,16.62,0,84.32-13.57,121.84-19.66-1.52,.14-102.32,8.03-124.61,5.68-22.43-2.35-126.97-92.91-126.97-92.91l-43.34,22.57Z"/>
      <path class="cls-3" d="M830.81,1783.34h-152.31c-10.94-7.34,2.91-79.75,2.91-79.75,0,0,41.54-15.78,48.74,16.34,7.2,32.12,53.03,42.23,77.26,46.11,16.48,2.63,21.74,11.77,23.4,17.31Z"/>
      <path class="cls-3" d="M604.85,1783.34h-152.44c-10.94-7.34,2.91-79.75,2.91-79.75,0,0,41.54-15.78,48.74,16.34,7.2,32.12,53.03,42.23,77.26,46.11,16.62,2.63,21.88,11.77,23.54,17.31Z"/>
      <path class="cls-5" d="M789.83,1044.8s-6.78,85.43-14.95,188.17c-10.94,139.57-40.43,485.44-40.43,485.44,0,0-19.38,16.48-62.17,7.48,0,0-36.41-119.35-47.35-255.6-.14-2.22-.28-4.43-.55-6.78-10.11-138.74-25.89-430.61-25.89-430.61l191.35,11.91Z"/>
      <path class="cls-3" d="M792.18,1015.31s-9.14,114.92-17.17,217.66l-150.09,237.46c-.14-2.22-.28-4.43-.55-6.78-10.11-138.74-25.89-430.61-25.89-430.61l193.7-17.72Z"/>
      <path class="cls-5" d="M748.43,1015.31s-108.83,270.83-143.58,373.56c-24.78,73.11-94.71,329.67-94.71,329.67,0,0-30.32,9.28-55.94-8.58,0,0-26.03-262.1,26.58-336.04,27.83-39.18,6.92-407.62,119.91-410.81,112.98-3.18,147.74,52.2,147.74,52.2Z"/>
      <path class="cls-14" d="M699.83,615.99c-16.62,8.72-32.81,9.28-46.94,6.37-12.88-2.77-23.95-8.45-31.71-13.43-8.03-5.12-12.88-9.69-12.88-9.69,0,0,.55-.83,1.52-2.35,4.85-8.45,19.8-38.63,13.15-87.09-.14-.69,4.71,.28,11.91,1.94,21.6,5.12,64.94,17.45,66.88,18h.14s.55,10.25,2.35,28.52c.14,1.66,.28,3.32,.55,4.98,.28,2.08,.42,4.43,.69,6.78,2.08,18.97-5.68,45.97-5.68,45.97Z"/>
      <path class="cls-6" d="M704.4,558.25c-32.26,7.34-80.31-40.15-80.31-40.15,3.46-2.63,7.2-4.71,11.08-6.23,21.6,5.12,64.94,17.45,66.88,18h.14s.42,10.11,2.22,28.38Z"/>
      <path class="cls-14" d="M715.34,527.24s-13.29,4.71-30.18,7.06c-24.65,3.32-57.18,1.38-67.43-28.52-17.17-50.26-39.18-80.44,11.49-101.08,27.14-10.94,44.45-11.63,56.21-7.34,10.25,3.6,16.2,10.8,20.77,18,9.83,15.37,29.63,103.01,9.14,111.88Z"/>
      <path class="cls-16" d="M745.94,419.24c-29.35,21.05-69.78,.42-82.38,5.95s-14.82,26.72-15.09,33.37-1.11,12.32-18.14,8.31c-2.77-.69-4.85-.42-6.23,.42-7.06,4.15,1.94,24.65,4.71,28.94,0,0,3.88,14.54-4.85,21.74-1.11,.83-18.14,8.31-59.54-54.83-6.51-9.97-12.74-32.26-2.63-53.86,9.97-21.46,51.92-42.37,87.37-53.31,13.29-4.15,23.12-4.02,30.88-1.11,12.88,4.71,19.8,16.89,26.58,29.08,11.49,20.49,39.32,35.31,39.32,35.31Z"/>
      <path class="cls-2" d="M806.86,969.76c-2.35,31.01-8.86,53.31-23.26,53.31,0,0-63.97,22.43-140.4,23.12-14.95,.14-36.14-2.77-53.58-5.68-17.86-3.05-32.12-6.09-32.12-6.09-15.37-3.6-32.26-13.02-30.05-30.6,1.25-9.97,2.22-22.85,2.77-37.8,1.66-40.57,1.38-96.51,1.66-149.95,.14-32.81,.42-64.8,1.52-91.8,0,0-15.09-105.92,1.66-123.23,19.66-20.35,77.26-26.58,80.86-25.75,1.11-.28,2.22-.55,3.32-.69,0,0,49.01,27.69,85.57,7.2,0,0,.42,0,.97,.14,8.86,1.38,53.17,11.63,68.54,27.83,5.26,5.54,26.31,39.74,26.86,77.26,.83,52.34-1.25,111.74-1.25,111.74,.55,8.45,1.52,19.38,2.49,31.98,1.11,13.29,2.22,28.38,3.18,44.03,.55,7.89,.97,15.92,1.38,24.09,1.11,24.78,1.38,49.85-.14,70.89Z"/>
      <path class="cls-11" d="M616.2,575.15s54.28,55.94,93.04,44.58c0,0,5.12-7.62-12.32-9.97-17.45-2.49-36.28-1.52-80.72-34.61Z"/>
      <path class="cls-13" d="M715.75,494.7s1.11,6.51-14.12,11.77c0,0-12.74,4.43-15.09-2.35,0,0,10.11-9.69,29.21-9.42Z"/>
      <path class="cls-11" d="M581.72,771.9s.14,151.47-51.51,193.98c1.66-40.57,1.38-96.51,1.66-149.95l49.85-44.03Z"/>
      <path class="cls-14" d="M423.05,1055.46s-26.31,41.26-27.69,57.05c-.97,10.8,1.38,53.03,6.78,53.17,7.62,.14,15.09-26.17,18-32.95s6.37-12.18,9.28-12.18-6.37,26.31,0,23.4,17.03-27.28,18-33.23c.97-5.82-5.68-24.65-2.49-31.98,3.32-7.34-21.88-23.26-21.88-23.26Z"/>
      <path class="cls-2" d="M540.19,595.08s-35.58,16.75-65.35,140.95c-22.43,93.6-65.35,332.72-65.35,332.72l36.28,14.95s133.06-305.58,152.17-348.5c18.97-42.92-57.74-140.12-57.74-140.12Z"/>
    </g>
    <g>
      <g>
        <path class="cls-14" d="M1193.99,771.9s35.17,171.83,48.46,199.8c13.43,28.11,66.88,129.04,66.88,129.04l-15.65,10.8s-96.37-99.83-99.69-110.49c-3.32-10.66-66.46-144.41-66.46-144.41l66.46-84.74Z"/>
        <path class="cls-3" d="M1126.15,509.79s-68.12-81.83-104.26-29.49c0,0-26.86,11.22-36.69,56.91-9.97,46.66,21.18,82.24,37.25,73.52,10.25-5.68,18.14,12.46,18.14,12.46l85.57-113.4Z"/>
        <path class="cls-3" d="M1029.5,471.99s-9.14-36.69-63-25.2c0,0,25.75-3.18,32.81,6.65,0,0-20.35-9.42-33.23-1.52-12.74,7.89-14.95,34.2-13.02,42.23,1.94,8.03,16.06,31.85,25.34,31.85s20.35-8.17,20.35-8.17l30.74-45.83Z"/>
        <path class="cls-14" d="M948.92,1045.35c26.72-59.95,39.6-76.98,40.01-95.81,.42-14.95-7.06-31.01-21.32-70.48-3.32-9.28-5.68-18.83-7.06-28.52-11.35-76.15,32.68-158.54,60.09-164.07,7.62-2.08,20.49-29.49,20.35-73.8l3.46,.69,57.6,11.35s-1.25,18.14-1.38,35.17c0,14.26,.83,27.69,4.02,29.49,4.15,.42,6.65,.69,6.65,.69,0,0,48.05,66.74,52.06,128.77,4.02,62.03-38.49,89.03,.28,213.09,39.74,126.55-229.57,46.66-214.75,13.43Z"/>
        <path class="cls-10" d="M1102.05,624.58s-1.25,18.14-1.38,35.17c-32.26-.97-49.29-30.32-56.21-46.66l57.6,11.49Z"/>
        <path class="cls-3" d="M1038.5,606.85s-16.89-26.72-20.91-49.57c-2.91-16.34,5.4-76.71,66.18-67.98,0,0,17.58,1.8,34.2,12.88,13.15,8.86,32.26,28.11,10.94,80.86l-5.54,17.86-84.88,5.95Z"/>
        <path class="cls-14" d="M1112.85,640.78s-76.29,1.25-76.29-46.25-9.97-79.34,38.77-82.24c48.74-2.77,58.15,15.37,62.03,31.15,3.74,15.92-4.71,95.81-24.51,97.34Z"/>
        <path class="cls-3" d="M1109.95,511.18s-20.91,55.8-52.89,63.97c-32.12,8.31-45.97-.28-45.97-.28,0,0,24.65-19.52,29.63-53.58,0-.14,53.45-36.69,69.23-10.11Z"/>
        <path class="cls-3" d="M1104.82,515.61s15.65,12.46,19.38,24.51c3.74,12.05,5.54,36.97,12.74,36.14,0,0,15.78-37.94-1.94-59.4-18.69-22.57-30.18-1.25-30.18-1.25Z"/>
        <path class="cls-18" d="M1016.49,1621.21c19.25,76.43,48.05,134.86,48.05,134.86l25.2-1.8s-12.32-58.71-11.63-138.04c.55-55.38,7.34-121.01,29.21-183.6,75.32-215.03,63.14-371.49,63.14-371.49l-141.64,16.62-6.65,.83c-.55,65.08-2.22,153.27-3.74,222.37-1.25,62.03-2.49,108.55-2.49,108.55-27,58.71-17.17,141.37,.55,211.7Z"/>
        <path class="cls-14" d="M849.64,1109.18l22.85,6.92s75.6-125.44,82.38-157.98c2.22-10.66,7.75-31.85,14.12-55.66,13.29-49.29,30.46-109.66,30.46-109.66l5.68-24.37,19.25-83.35s-36.83,3.74-58.43,12.74c-7.2,2.91-12.6,6.51-14.54,10.66-15.78,34.75-31.57,122.67-42.78,185.26-6.23,34.89-10.94,62.03-13.43,67.71-6.65,16.06-27.55,104.12-45.55,147.74Z"/>
        <path class="cls-5" d="M904.89,1540.62c-6.92,46.52-24.09,175.01-17.45,196.47l27.41-4.57s50.54-116.03,61.89-148.01c23.54-65.49,50.95-105.37,60.23-136.11,29.08-96.09,65.21-409.84,65.21-409.84l-143.58-7.06c-14.4,24.23-20.77,64.11-22.29,109.38-3.74,114.23,11.49,246.32,15.51,267.92-11.63,19.11-33.92,44.45-46.94,131.81Z"/>
        <path class="cls-3" d="M1107.73,517.55s-14.95,58.43-55.38,77.12c0,0,40.43-35.86,43.89-74.49,3.46-38.49,11.49-2.63,11.49-2.63Z"/>
        <path class="cls-1" d="M930.92,1088.69c-.28,4.85,0,8.72,.83,11.49,3.05,9.55,13.57,13.98,38.91,11.35,15.51-1.66,22.43-27.55,25.48-49.71,9.28,31.71,22.29,49.57,39.18,53.17,24.65,5.4,148.57,20.49,156.74-38.35,8.86-64.8-17.86-179.72-19.25-241.61,3.6-22.02,4.85-40.98,4.43-57.32-.97-44.03-13.98-68.81-23.95-78.78-2.77-2.22-5.68-3.46-16.89-5.4-5.82-.97-13.85-2.08-25.2-3.6,0,0-4.57-.55-4.57-.42,2.08,3.74,30.18,46.25,27.97,57.18-2.35,11.49-101.91,1.11-108.83-5.12-6.92-6.23-17.72-54.55-17.72-54.55,0,0-35.31,3.88-52.48,16.34,0,0,0,.14,.14,.28-2.08,1.52-3.6,3.05-4.57,4.71-18.42,35.03-36.83,123.51-49.71,186.64,31.29,17.31,58.71,12.18,67.15,9.83-10.8,72.83-36,150.78-37.66,183.87Z"/>
        <g>
          <path class="cls-3" d="M1050.13,1777.25h16.06c5.4-.83,9.42-2.35,14.82-3.18,8.45-1.11,12.18,2.35,13.02,3.18l.14,.14h68.26c1.66-2.49,0-8.17-1.52-12.32-1.11-2.91-3.46-4.98-6.37-5.82-7.2-2.08-21.46-4.02-34.61-15.78-7.34-6.65-35.45-24.37-35.45-24.37h-.14c-.55,0-3.6,.97-16.34,11.77-6.65,5.54-17.86-7.89-17.86-7.89,0,0-2.08,1.8-3.74,4.98-1.25,2.63-2.22,6.09-1.52,10.52,.97,6.09-2.22,17.58-4.85,25.34-1.52,4.71-2.91,8.03-2.91,8.03,0,0-.83,3.6,13.02,5.4Z"/>
          <path class="cls-19" d="M1046.26,1727.82c3.88,2.77,11.91,8.03,17.31,8.72,7.2,.97,20.77-17.58,20.77-17.58h-.14c-.55,0-3.6,.97-16.34,11.77-6.65,5.54-17.86-7.89-17.86-7.89,0,0-2.08,1.8-3.74,4.98Z"/>
          <path class="cls-19" d="M1050.13,1777.25h16.06c5.4-.83,9.42-2.35,14.82-3.18,8.45-1.11,12.18,2.35,13.02,3.18l.14,.14h68.26c1.66-2.49,0-8.17-1.52-12.32-2.08-1.8-2.63,8.03-3.74,9.55s-55.66,.55-58.85-1.66c-3.18-2.35-12.6-6.23-25.75-3.18-11.49,2.77-28.38-4.29-32.54-6.09-1.52,4.71-2.91,8.03-2.91,8.03,0,0-.83,3.74,13.02,5.54Z"/>
        </g>
        <g>
          <path class="cls-3" d="M885.23,1777.25h16.06c5.4-.83,9.42-2.35,14.82-3.18,8.45-1.11,12.18,2.35,13.02,3.18l.14,.14h68.26c1.66-2.49,0-8.17-1.52-12.32-1.11-2.91-3.46-4.98-6.37-5.82-7.2-2.08-21.46-4.02-34.61-15.78-7.34-6.65-35.45-24.37-35.45-24.37h-.14c-.55,0-3.6,.97-16.34,11.77-6.65,5.54-17.86-7.89-17.86-7.89,0,0-2.08,1.8-3.74,4.98-1.25,2.63-2.22,6.09-1.52,10.52,.97,6.09-2.22,17.58-4.85,25.34-1.52,4.71-2.91,8.03-2.91,8.03,0,0-.83,3.6,13.02,5.4Z"/>
          <path class="cls-19" d="M881.49,1727.82c3.88,2.77,11.91,8.03,17.31,8.72,7.2,.97,20.77-17.58,20.77-17.58h-.14c-.55,0-3.6,.97-16.34,11.77-6.65,5.54-17.86-7.89-17.86-7.89,0,0-2.22,1.8-3.74,4.98Z"/>
          <path class="cls-19" d="M885.23,1777.25h16.06c5.4-.83,9.42-2.35,14.82-3.18,8.45-1.11,12.18,2.35,13.02,3.18l.14,.14h68.26c1.66-2.49,0-8.17-1.52-12.32-2.08-1.8-2.63,8.03-3.74,9.55s-55.66,.55-58.85-1.66c-3.18-2.35-12.6-6.23-25.75-3.18-11.49,2.77-28.38-4.29-32.54-6.09-1.52,4.71-2.91,8.03-2.91,8.03,0,0-.83,3.74,13.02,5.54Z"/>
        </g>
        <path class="cls-12" d="M930.92,1088.69c17.03-5.68,38.91-20.77,65.08-54.69,69.51-89.86,5.95-195.37-2.63-197.3-8.58-1.94-24.51,68.26-24.51,68.26-11.08,72.69-36.28,150.64-37.94,183.74Z"/>
        <path class="cls-1" d="M1149.13,696.99s47.63,23.95,63.41,120.6c0,0-15.65,21.32-37.52,27.69-3.18,.97-6.37,1.52-9.83,1.66-26.86,1.38-16.06-149.95-16.06-149.95Z"/>
        <path class="cls-14" d="M1309.33,1100.88s26.72,22.02,26.03,31.98-16.06,27.42-26.03,26.72c-9.97-.69-15.65-47.91-15.65-47.91l15.65-10.8Z"/>
        <g>
          <rect class="cls-18" x="1373.47" y="1109.44" width="8.03" height="671" transform="translate(-260.22 303.34) rotate(-11.49)"/>
          <rect class="cls-18" x="1308.32" y="1108.82" width="16.89" height="74.49" transform="translate(-203.84 288.68) rotate(-11.62)"/>
        </g>
        <path class="cls-13" d="M1097.9,612.53s1.38,5.54,15.23,4.71c0,0,11.77-.69,11.35-6.92,0,.14-11.35-4.29-26.58,2.22Z"/>
      </g>
      <g>
        <path class="cls-14" d="M853.8,1098.66s-33.23,20.35-37.94,29.21c-4.85,8.86-16.06,41.26-16.06,41.26,0,0,8.03,1.25,16.06-12.88,8.03-13.98,34.48-12.88,43.34-20.49,8.86-7.62,19.11-29.91,19.11-29.91l-24.51-7.2Z"/>
        <path class="cls-14" d="M874.7,1112.78s-5.26,24.65-11.63,31.85c-6.37,7.2-15.23,19.25-18.83,16.06s4.02-30.05,4.02-30.05l26.45-17.86Z"/>
        <path class="cls-14" d="M820.15,1130.64c-.83,1.25-28.38,30.6-28.38,30.6,0,0,9.97,4.57,12.88,0,2.77-4.57,15.51-30.6,15.51-30.6Z"/>
      </g>
    </g>
    <path class="cls-18" d="M1093.61,582.62h-10.94c-4.98,0-9-4.02-9-9v-3.32c0-2.49,2.08-4.57,4.57-4.57h21.46c1.66,0,2.91,1.38,2.91,2.91v4.98c0,4.98-4.02,9-9,9Z"/>
    <path class="cls-18" d="M1126.29,582.62h10.94c4.98,0,9-4.02,9-9v-3.32c0-2.49-2.08-4.57-4.57-4.57h-21.46c-1.66,0-2.91,1.38-2.91,2.91v4.98c0,4.98,4.02,9,9,9Z"/>
    <path class="cls-18" d="M1120.33,573.07c-.14,0-9.42-4.02-18.28,0l-.69-1.52c9.55-4.43,19.25-.14,19.66,0l-.69,1.52Z"/>
  </g>
</svg>